{
    "asset" : {
        "generator" : "Khronos glTF Blender I/O v1.7.5",
        "version" : "2.0"
    },
    "extensionsUsed" : [
        "KHR_texture_transform"
    ],
    "extensionsRequired" : [
        "KHR_texture_transform"
    ],
    "scene" : 0,
    "scenes" : [
        {
            "extras" : {
                "glTF2ExportSettings" : {
                    "export_extras" : 1,
                    "export_format" : "GLTF_SEPARATE",
                    "export_texture_dir" : "textures",
                    "use_selection" : 1
                }
            },
            "name" : "Scene",
            "nodes" : [
                0
            ]
        }
    ],
    "nodes" : [
        {
            "extras" : {},
            "mesh" : 0,
            "name" : "Couronne_1",
            "rotation" : [
                0,
                0,
                1,
                -1.6292068494294654e-07
            ],
            "translation" : [
                0,
                5.027700901031494,
                0
            ]
        }
    ],
    "materials" : [
        {
            "doubleSided" : true,
            "name" : "Polystyrene_Image_Texture_Web.004",
            "normalTexture" : {
                "extensions" : {
                    "KHR_texture_transform" : {
                        "offset" : [
                            0,
                            -14
                        ],
                        "scale" : [
                            15,
                            15
                        ]
                    }
                },
                "index" : 0,
                "scale" : 2.0999999046325684
            },
            "pbrMetallicRoughness" : {
                "baseColorTexture" : {
                    "extensions" : {
                        "KHR_texture_transform" : {
                            "offset" : [
                                0,
                                -14
                            ],
                            "scale" : [
                                15,
                                15
                            ]
                        }
                    },
                    "index" : 1
                },
                "metallicFactor" : 0,
                "roughnessFactor" : 0.6454545259475708
            }
        }
    ],
    "meshes" : [
        {
            "name" : "Object_1.002",
            "primitives" : [
                {
                    "attributes" : {
                        "POSITION" : 0,
                        "NORMAL" : 1,
                        "TEXCOORD_0" : 2
                    },
                    "indices" : 3,
                    "material" : 0
                }
            ]
        }
    ],
    "textures" : [
        {
            "sampler" : 0,
            "source" : 0
        },
        {
            "sampler" : 0,
            "source" : 1
        }
    ],
    "images" : [
        {
            "mimeType" : "image/jpeg",
            "name" : "NormalMap",
            "uri" : "textures/NormalMap.jpg"
        },
        {
            "mimeType" : "image/jpeg",
            "name" : "Diffuse",
            "uri" : "textures/Diffuse.jpg"
        }
    ],
    "accessors" : [
        {
            "bufferView" : 0,
            "componentType" : 5126,
            "count" : 3232,
            "max" : [
                70.44031524658203,
                50.128211975097656,
                70.55778503417969
            ],
            "min" : [
                -69.8475112915039,
                -5.162201881408691,
                -69.73004150390625
            ],
            "type" : "VEC3"
        },
        {
            "bufferView" : 1,
            "componentType" : 5126,
            "count" : 3232,
            "type" : "VEC3"
        },
        {
            "bufferView" : 2,
            "componentType" : 5126,
            "count" : 3232,
            "type" : "VEC2"
        },
        {
            "bufferView" : 3,
            "componentType" : 5123,
            "count" : 5424,
            "type" : "SCALAR"
        }
    ],
    "bufferViews" : [
        {
            "buffer" : 0,
            "byteLength" : 38784,
            "byteOffset" : 0
        },
        {
            "buffer" : 0,
            "byteLength" : 38784,
            "byteOffset" : 38784
        },
        {
            "buffer" : 0,
            "byteLength" : 25856,
            "byteOffset" : 77568
        },
        {
            "buffer" : 0,
            "byteLength" : 10848,
            "byteOffset" : 103424
        }
    ],
    "samplers" : [
        {
            "magFilter" : 9729,
            "minFilter" : 9987
        }
    ],
    "buffers" : [
        {
            "byteLength" : 114272,
            "uri" : "Couronne1.bin"
        }
    ]
}
