{
    "asset" : {
        "generator" : "Khronos glTF Blender I/O v1.5.17",
        "version" : "2.0"
    },
    "extensionsUsed" : [
        "KHR_texture_transform"
    ],
    "extensionsRequired" : [
        "KHR_texture_transform"
    ],
    "scene" : 0,
    "scenes" : [
        {
            "extras" : {
                "glTF2ExportSettings" : {
                    "export_extras" : 1,
                    "export_format" : "GLTF_SEPARATE",
                    "export_texture_dir" : "textures",
                    "use_selection" : 1
                }
            },
            "name" : "Scene",
            "nodes" : [
                0,
                1,
                2,
                3,
                4,
                5,
                6,
                7
            ]
        }
    ],
    "nodes" : [
        {
            "extras" : {},
            "mesh" : 0,
            "name" : "Couronne_1",
            "rotation" : [
                0,
                0.03490792214870453,
                0.9993905425071716,
                -1.5978537248884095e-07
            ],
            "translation" : [
                -1.3066270184936002e-05,
                -9.315603256225586,
                7.990002814040054e-06
            ]
        },
        {
            "extras" : {},
            "mesh" : 1,
            "name" : "Couronne_1.001",
            "rotation" : [
                0,
                0,
                1,
                -1.6292068494294654e-07
            ],
            "translation" : [
                -0.2964356243610382,
                38.273502349853516,
                0.4138731062412262
            ]
        },
        {
            "extras" : {},
            "mesh" : 2,
            "name" : "Couronne_1.003",
            "rotation" : [
                0,
                -1,
                0,
                7.549791547489804e-08
            ],
            "translation" : [
                -1.3066270184936002e-05,
                5.331639289855957,
                7.990002814040054e-06
            ]
        },
        {
            "extras" : {},
            "mesh" : 3,
            "name" : "Couronne_1.005",
            "rotation" : [
                0,
                -1,
                0,
                7.549791547489804e-08
            ],
            "translation" : [
                -0.2964356243610382,
                -43.798851013183594,
                0.4138731062412262
            ]
        },
        {
            "extras" : {},
            "mesh" : 4,
            "name" : "Couronne_1.007",
            "rotation" : [
                -0.006294741295278072,
                0.047188714146614075,
                0.9961586594581604,
                0.07349533587694168
            ],
            "translation" : [
                0.4383472204208374,
                -18.968896865844727,
                -8.966894149780273
            ]
        },
        {
            "extras" : {},
            "mesh" : 5,
            "name" : "Bras.003",
            "rotation" : [
                0.2936144769191742,
                -0.46468332409858704,
                0.8310871124267578,
                -0.08458360284566879
            ],
            "scale" : [
                0.009999999776482582,
                0.009999999776482582,
                0.009999999776482582
            ],
            "translation" : [
                -19.662221908569336,
                -180.5662384033203,
                -17.152080535888672
            ]
        },
        {
            "extras" : {},
            "mesh" : 6,
            "name" : "Couronne_1.004",
            "rotation" : [
                0.10994181036949158,
                -0.5568293333053589,
                -0.42294785380363464,
                0.706377387046814
            ],
            "scale" : [
                0.8648108839988708,
                0.8648108839988708,
                0.8648108839988708
            ],
            "translation" : [
                -1.3066270184936002e-05,
                -69.9984130859375,
                7.990002814040054e-06
            ]
        },
        {
            "extras" : {},
            "mesh" : 7,
            "name" : "Couronne_1.006",
            "rotation" : [
                0.2786981761455536,
                -0.9435290694236755,
                -0.1717732846736908,
                -0.05073818564414978
            ],
            "scale" : [
                0.8648108839988708,
                0.8648108839988708,
                0.8648108839988708
            ],
            "translation" : [
                -1.3066270184936002e-05,
                -77.26124572753906,
                7.990002814040054e-06
            ]
        }
    ],
    "materials" : [
        {
            "doubleSided" : true,
            "name" : "Polystyrene_Image_Texture_Web.004",
            "normalTexture" : {
                "extensions" : {
                    "KHR_texture_transform" : {
                        "offset" : [
                            0,
                            -14
                        ],
                        "scale" : [
                            15,
                            15
                        ]
                    }
                },
                "index" : 0,
                "scale" : 2.0999999046325684
            },
            "pbrMetallicRoughness" : {
                "baseColorTexture" : {
                    "extensions" : {
                        "KHR_texture_transform" : {
                            "offset" : [
                                0,
                                -14
                            ],
                            "scale" : [
                                15,
                                15
                            ]
                        }
                    },
                    "index" : 1
                },
                "metallicFactor" : 0,
                "roughnessFactor" : 0.6454545259475708
            }
        }
    ],
    "meshes" : [
        {
            "name" : "Object_1.002",
            "primitives" : [
                {
                    "attributes" : {
                        "POSITION" : 0,
                        "NORMAL" : 1,
                        "TEXCOORD_0" : 2
                    },
                    "indices" : 3,
                    "material" : 0
                }
            ]
        },
        {
            "name" : "Object_1.001",
            "primitives" : [
                {
                    "attributes" : {
                        "POSITION" : 4,
                        "NORMAL" : 5,
                        "TEXCOORD_0" : 6
                    },
                    "indices" : 7,
                    "material" : 0
                }
            ]
        },
        {
            "name" : "Object_1.005",
            "primitives" : [
                {
                    "attributes" : {
                        "POSITION" : 8,
                        "NORMAL" : 9,
                        "TEXCOORD_0" : 10
                    },
                    "indices" : 11,
                    "material" : 0
                }
            ]
        },
        {
            "name" : "Object_1.007",
            "primitives" : [
                {
                    "attributes" : {
                        "POSITION" : 12,
                        "NORMAL" : 13,
                        "TEXCOORD_0" : 14
                    },
                    "indices" : 15,
                    "material" : 0
                }
            ]
        },
        {
            "name" : "Object_1.009",
            "primitives" : [
                {
                    "attributes" : {
                        "POSITION" : 16,
                        "NORMAL" : 17,
                        "TEXCOORD_0" : 18
                    },
                    "indices" : 19,
                    "material" : 0
                }
            ]
        },
        {
            "name" : "Object_19.007",
            "primitives" : [
                {
                    "attributes" : {
                        "POSITION" : 20,
                        "NORMAL" : 21,
                        "TEXCOORD_0" : 22
                    },
                    "indices" : 23,
                    "material" : 0
                }
            ]
        },
        {
            "name" : "Object_1.010",
            "primitives" : [
                {
                    "attributes" : {
                        "POSITION" : 24,
                        "NORMAL" : 25,
                        "TEXCOORD_0" : 26
                    },
                    "indices" : 27,
                    "material" : 0
                }
            ]
        },
        {
            "name" : "Object_1.008",
            "primitives" : [
                {
                    "attributes" : {
                        "POSITION" : 28,
                        "NORMAL" : 29,
                        "TEXCOORD_0" : 30
                    },
                    "indices" : 31,
                    "material" : 0
                }
            ]
        }
    ],
    "textures" : [
        {
            "sampler" : 0,
            "source" : 0
        },
        {
            "sampler" : 0,
            "source" : 1
        }
    ],
    "images" : [
        {
            "mimeType" : "image/jpeg",
            "name" : "NormalMap",
            "uri" : "textures/NormalMap.jpg"
        },
        {
            "mimeType" : "image/jpeg",
            "name" : "Diffuse",
            "uri" : "textures/Diffuse.jpg"
        }
    ],
    "accessors" : [
        {
            "bufferView" : 0,
            "componentType" : 5126,
            "count" : 830,
            "max" : [
                44.975948333740234,
                12.19054126739502,
                44.97590255737305
            ],
            "min" : [
                -44.975860595703125,
                -5.305987358093262,
                -15.604307174682617
            ],
            "type" : "VEC3"
        },
        {
            "bufferView" : 1,
            "componentType" : 5126,
            "count" : 830,
            "type" : "VEC3"
        },
        {
            "bufferView" : 2,
            "componentType" : 5126,
            "count" : 830,
            "type" : "VEC2"
        },
        {
            "bufferView" : 3,
            "componentType" : 5123,
            "count" : 1644,
            "type" : "SCALAR"
        },
        {
            "bufferView" : 4,
            "componentType" : 5126,
            "count" : 784,
            "max" : [
                63.264488220214844,
                11.821590423583984,
                63.264442443847656
            ],
            "min" : [
                -63.26438903808594,
                -10.954931259155273,
                -63.264434814453125
            ],
            "type" : "VEC3"
        },
        {
            "bufferView" : 5,
            "componentType" : 5126,
            "count" : 784,
            "type" : "VEC3"
        },
        {
            "bufferView" : 6,
            "componentType" : 5126,
            "count" : 784,
            "type" : "VEC2"
        },
        {
            "bufferView" : 7,
            "componentType" : 5123,
            "count" : 1344,
            "type" : "SCALAR"
        },
        {
            "bufferView" : 8,
            "componentType" : 5126,
            "count" : 1352,
            "max" : [
                64.70738220214844,
                3.5828237533569336,
                64.70726013183594
            ],
            "min" : [
                -64.70714569091797,
                -9.771488189697266,
                -64.707275390625
            ],
            "type" : "VEC3"
        },
        {
            "bufferView" : 9,
            "componentType" : 5126,
            "count" : 1352,
            "type" : "VEC3"
        },
        {
            "bufferView" : 10,
            "componentType" : 5126,
            "count" : 1352,
            "type" : "VEC2"
        },
        {
            "bufferView" : 11,
            "componentType" : 5123,
            "count" : 2688,
            "type" : "SCALAR"
        },
        {
            "bufferView" : 12,
            "componentType" : 5126,
            "count" : 784,
            "max" : [
                26.186431884765625,
                6.3733439445495605,
                26.665802001953125
            ],
            "min" : [
                -26.19280242919922,
                -1.1589818000793457,
                -25.71343994140625
            ],
            "type" : "VEC3"
        },
        {
            "bufferView" : 13,
            "componentType" : 5126,
            "count" : 784,
            "type" : "VEC3"
        },
        {
            "bufferView" : 14,
            "componentType" : 5126,
            "count" : 784,
            "type" : "VEC2"
        },
        {
            "bufferView" : 15,
            "componentType" : 5123,
            "count" : 1344,
            "type" : "SCALAR"
        },
        {
            "bufferView" : 16,
            "componentType" : 5126,
            "count" : 540,
            "max" : [
                42.17238235473633,
                12.190534591674805,
                -12.342079162597656
            ],
            "min" : [
                -42.68476104736328,
                -5.305940628051758,
                -44.97591018676758
            ],
            "type" : "VEC3"
        },
        {
            "bufferView" : 17,
            "componentType" : 5126,
            "count" : 540,
            "type" : "VEC3"
        },
        {
            "bufferView" : 18,
            "componentType" : 5126,
            "count" : 540,
            "type" : "VEC2"
        },
        {
            "bufferView" : 19,
            "componentType" : 5123,
            "count" : 1068,
            "type" : "SCALAR"
        },
        {
            "bufferView" : 20,
            "componentType" : 5126,
            "count" : 490,
            "max" : [
                3593.958984375,
                4287.99267578125,
                670.60595703125
            ],
            "min" : [
                -4562.443359375,
                -3032.8515625,
                -739.2586059570312
            ],
            "type" : "VEC3"
        },
        {
            "bufferView" : 21,
            "componentType" : 5126,
            "count" : 490,
            "type" : "VEC3"
        },
        {
            "bufferView" : 22,
            "componentType" : 5126,
            "count" : 490,
            "type" : "VEC2"
        },
        {
            "bufferView" : 23,
            "componentType" : 5123,
            "count" : 804,
            "type" : "SCALAR"
        },
        {
            "bufferView" : 24,
            "componentType" : 5126,
            "count" : 360,
            "max" : [
                18.748193740844727,
                3.5828237533569336,
                -28.681739807128906
            ],
            "min" : [
                -57.79973602294922,
                -9.771488189697266,
                -64.707275390625
            ],
            "type" : "VEC3"
        },
        {
            "bufferView" : 25,
            "componentType" : 5126,
            "count" : 360,
            "type" : "VEC3"
        },
        {
            "bufferView" : 26,
            "componentType" : 5126,
            "count" : 360,
            "type" : "VEC2"
        },
        {
            "bufferView" : 27,
            "componentType" : 5123,
            "count" : 612,
            "type" : "SCALAR"
        },
        {
            "bufferView" : 28,
            "componentType" : 5126,
            "count" : 456,
            "max" : [
                64.70738220214844,
                3.5828237533569336,
                31.8468074798584
            ],
            "min" : [
                18.470516204833984,
                -9.771488189697266,
                -60.97669219970703
            ],
            "type" : "VEC3"
        },
        {
            "bufferView" : 29,
            "componentType" : 5126,
            "count" : 456,
            "type" : "VEC3"
        },
        {
            "bufferView" : 30,
            "componentType" : 5126,
            "count" : 456,
            "type" : "VEC2"
        },
        {
            "bufferView" : 31,
            "componentType" : 5123,
            "count" : 780,
            "type" : "SCALAR"
        }
    ],
    "bufferViews" : [
        {
            "buffer" : 0,
            "byteLength" : 9960,
            "byteOffset" : 0
        },
        {
            "buffer" : 0,
            "byteLength" : 9960,
            "byteOffset" : 9960
        },
        {
            "buffer" : 0,
            "byteLength" : 6640,
            "byteOffset" : 19920
        },
        {
            "buffer" : 0,
            "byteLength" : 3288,
            "byteOffset" : 26560
        },
        {
            "buffer" : 0,
            "byteLength" : 9408,
            "byteOffset" : 29848
        },
        {
            "buffer" : 0,
            "byteLength" : 9408,
            "byteOffset" : 39256
        },
        {
            "buffer" : 0,
            "byteLength" : 6272,
            "byteOffset" : 48664
        },
        {
            "buffer" : 0,
            "byteLength" : 2688,
            "byteOffset" : 54936
        },
        {
            "buffer" : 0,
            "byteLength" : 16224,
            "byteOffset" : 57624
        },
        {
            "buffer" : 0,
            "byteLength" : 16224,
            "byteOffset" : 73848
        },
        {
            "buffer" : 0,
            "byteLength" : 10816,
            "byteOffset" : 90072
        },
        {
            "buffer" : 0,
            "byteLength" : 5376,
            "byteOffset" : 100888
        },
        {
            "buffer" : 0,
            "byteLength" : 9408,
            "byteOffset" : 106264
        },
        {
            "buffer" : 0,
            "byteLength" : 9408,
            "byteOffset" : 115672
        },
        {
            "buffer" : 0,
            "byteLength" : 6272,
            "byteOffset" : 125080
        },
        {
            "buffer" : 0,
            "byteLength" : 2688,
            "byteOffset" : 131352
        },
        {
            "buffer" : 0,
            "byteLength" : 6480,
            "byteOffset" : 134040
        },
        {
            "buffer" : 0,
            "byteLength" : 6480,
            "byteOffset" : 140520
        },
        {
            "buffer" : 0,
            "byteLength" : 4320,
            "byteOffset" : 147000
        },
        {
            "buffer" : 0,
            "byteLength" : 2136,
            "byteOffset" : 151320
        },
        {
            "buffer" : 0,
            "byteLength" : 5880,
            "byteOffset" : 153456
        },
        {
            "buffer" : 0,
            "byteLength" : 5880,
            "byteOffset" : 159336
        },
        {
            "buffer" : 0,
            "byteLength" : 3920,
            "byteOffset" : 165216
        },
        {
            "buffer" : 0,
            "byteLength" : 1608,
            "byteOffset" : 169136
        },
        {
            "buffer" : 0,
            "byteLength" : 4320,
            "byteOffset" : 170744
        },
        {
            "buffer" : 0,
            "byteLength" : 4320,
            "byteOffset" : 175064
        },
        {
            "buffer" : 0,
            "byteLength" : 2880,
            "byteOffset" : 179384
        },
        {
            "buffer" : 0,
            "byteLength" : 1224,
            "byteOffset" : 182264
        },
        {
            "buffer" : 0,
            "byteLength" : 5472,
            "byteOffset" : 183488
        },
        {
            "buffer" : 0,
            "byteLength" : 5472,
            "byteOffset" : 188960
        },
        {
            "buffer" : 0,
            "byteLength" : 3648,
            "byteOffset" : 194432
        },
        {
            "buffer" : 0,
            "byteLength" : 1560,
            "byteOffset" : 198080
        }
    ],
    "samplers" : [
        {
            "magFilter" : 9729,
            "minFilter" : 9987
        }
    ],
    "buffers" : [
        {
            "byteLength" : 199640,
            "uri" : "Couronne+Bras.bin"
        }
    ]
}
