{
    "asset" : {
        "generator" : "Khronos glTF Blender I/O v1.5.17",
        "version" : "2.0"
    },
    "extensionsUsed" : [
        "KHR_materials_unlit"
    ],
    "scene" : 0,
    "scenes" : [
        {
            "extras" : {
                "glTF2ExportSettings" : {
                    "export_extras" : 1,
                    "export_format" : "GLTF_SEPARATE",
                    "export_texture_dir" : "textures",
                    "use_selection" : 1
                }
            },
            "name" : "Scene",
            "nodes" : [
                0,
                1,
                2,
                3,
                4,
                5,
                6
            ]
        }
    ],
    "nodes" : [
        {
            "extras" : {},
            "mesh" : 0,
            "name" : "Frag_1",
            "rotation" : [
                -0.15267108380794525,
                0.06195313110947609,
                -0.767280638217926,
                0.6197852492332458
            ],
            "scale" : [
                12.761861801147461,
                12.761861801147461,
                12.761859893798828
            ]
        },
        {
            "extras" : {},
            "mesh" : 1,
            "name" : "Frag_2",
            "rotation" : [
                0.19190865755081177,
                -0.35439300537109375,
                -0.804772675037384,
                0.435795396566391
            ]
        },
        {
            "extras" : {},
            "mesh" : 2,
            "name" : "Frag_3",
            "rotation" : [
                0.9927418231964111,
                0,
                0,
                0.12026496976613998
            ]
        },
        {
            "extras" : {},
            "mesh" : 3,
            "name" : "Frag_4",
            "rotation" : [
                -0.47251537442207336,
                -0.27111387252807617,
                0.15545831620693207,
                0.8240504860877991
            ],
            "translation" : [
                4.765808582305908,
                0,
                0
            ]
        },
        {
            "extras" : {},
            "mesh" : 4,
            "name" : "Frag_5",
            "rotation" : [
                0.06599098443984985,
                -0.36257606744766235,
                0.9145898222923279,
                -0.1664608269929886
            ]
        },
        {
            "extras" : {},
            "mesh" : 5,
            "name" : "Frag_6",
            "rotation" : [
                -0.15952052175998688,
                -0.04122922196984291,
                -0.24681456387043,
                0.9549533724784851
            ]
        },
        {
            "extras" : {},
            "mesh" : 6,
            "name" : "Frag_7",
            "rotation" : [
                0.19190865755081177,
                -0.35439300537109375,
                -0.804772675037384,
                0.435795396566391
            ]
        }
    ],
    "animations" : [
        {
            "channels" : [
                {
                    "sampler" : 0,
                    "target" : {
                        "node" : 3,
                        "path" : "rotation"
                    }
                }
            ],
            "name" : "Cube_cell.064Action.001",
            "samplers" : [
                {
                    "input" : 27,
                    "interpolation" : "LINEAR",
                    "output" : 28
                }
            ]
        }
    ],
    "materials" : [
        {
            "doubleSided" : true,
            "extensions" : {
                "KHR_materials_unlit" : {}
            },
            "name" : "Frag_1",
            "pbrMetallicRoughness" : {
                "baseColorTexture" : {
                    "index" : 0
                },
                "metallicFactor" : 0,
                "roughnessFactor" : 0.9
            }
        },
        {
            "doubleSided" : true,
            "extensions" : {
                "KHR_materials_unlit" : {}
            },
            "name" : "Frag_2",
            "pbrMetallicRoughness" : {
                "baseColorTexture" : {
                    "index" : 1
                },
                "metallicFactor" : 0,
                "roughnessFactor" : 0.9
            }
        },
        {
            "doubleSided" : true,
            "extensions" : {
                "KHR_materials_unlit" : {}
            },
            "name" : "Frag_3",
            "pbrMetallicRoughness" : {
                "baseColorTexture" : {
                    "index" : 2
                },
                "metallicFactor" : 0,
                "roughnessFactor" : 0.9
            }
        },
        {
            "doubleSided" : true,
            "extensions" : {
                "KHR_materials_unlit" : {}
            },
            "name" : "Frag_4",
            "pbrMetallicRoughness" : {
                "baseColorTexture" : {
                    "index" : 3
                },
                "metallicFactor" : 0,
                "roughnessFactor" : 0.9
            }
        },
        {
            "doubleSided" : true,
            "extensions" : {
                "KHR_materials_unlit" : {}
            },
            "name" : "Frag_5",
            "pbrMetallicRoughness" : {
                "baseColorTexture" : {
                    "index" : 4
                },
                "metallicFactor" : 0,
                "roughnessFactor" : 0.9
            }
        },
        {
            "doubleSided" : true,
            "extensions" : {
                "KHR_materials_unlit" : {}
            },
            "name" : "Frag_6",
            "pbrMetallicRoughness" : {
                "baseColorTexture" : {
                    "index" : 5
                },
                "metallicFactor" : 0,
                "roughnessFactor" : 0.9
            }
        },
        {
            "doubleSided" : true,
            "extensions" : {
                "KHR_materials_unlit" : {}
            },
            "name" : "Frag_7",
            "pbrMetallicRoughness" : {
                "baseColorTexture" : {
                    "index" : 6
                },
                "metallicFactor" : 0,
                "roughnessFactor" : 0.9
            }
        }
    ],
    "meshes" : [
        {
            "name" : "Cube_cell.001",
            "primitives" : [
                {
                    "attributes" : {
                        "POSITION" : 0,
                        "NORMAL" : 1,
                        "TEXCOORD_0" : 2
                    },
                    "indices" : 3,
                    "material" : 0
                }
            ]
        },
        {
            "name" : "Cube_cell.002",
            "primitives" : [
                {
                    "attributes" : {
                        "POSITION" : 4,
                        "NORMAL" : 5,
                        "TEXCOORD_0" : 6
                    },
                    "indices" : 7,
                    "material" : 1
                }
            ]
        },
        {
            "name" : "Cube_cell.003",
            "primitives" : [
                {
                    "attributes" : {
                        "POSITION" : 8,
                        "NORMAL" : 9,
                        "TEXCOORD_0" : 10
                    },
                    "indices" : 11,
                    "material" : 2
                }
            ]
        },
        {
            "name" : "Cube_cell.004",
            "primitives" : [
                {
                    "attributes" : {
                        "POSITION" : 12,
                        "NORMAL" : 13,
                        "TEXCOORD_0" : 14
                    },
                    "indices" : 15,
                    "material" : 3
                }
            ]
        },
        {
            "name" : "Cube_cell.005",
            "primitives" : [
                {
                    "attributes" : {
                        "POSITION" : 16,
                        "NORMAL" : 17,
                        "TEXCOORD_0" : 18
                    },
                    "indices" : 19,
                    "material" : 4
                }
            ]
        },
        {
            "name" : "Cube_cell.007",
            "primitives" : [
                {
                    "attributes" : {
                        "POSITION" : 20,
                        "NORMAL" : 21,
                        "TEXCOORD_0" : 22
                    },
                    "indices" : 23,
                    "material" : 5
                }
            ]
        },
        {
            "name" : "Cube_cell.008",
            "primitives" : [
                {
                    "attributes" : {
                        "POSITION" : 24,
                        "NORMAL" : 25,
                        "TEXCOORD_0" : 26
                    },
                    "indices" : 7,
                    "material" : 6
                }
            ]
        }
    ],
    "textures" : [
        {
            "sampler" : 0,
            "source" : 0
        },
        {
            "sampler" : 0,
            "source" : 1
        },
        {
            "sampler" : 0,
            "source" : 2
        },
        {
            "sampler" : 0,
            "source" : 3
        },
        {
            "sampler" : 0,
            "source" : 4
        },
        {
            "sampler" : 0,
            "source" : 5
        },
        {
            "sampler" : 0,
            "source" : 6
        }
    ],
    "images" : [
        {
            "mimeType" : "image/jpeg",
            "name" : "000_8U38GD",
            "uri" : "textures/000_8U38GD.jpg"
        },
        {
            "mimeType" : "image/jpeg",
            "name" : "A 20 996",
            "uri" : "textures/A%2020%20996.jpg"
        },
        {
            "mimeType" : "image/png",
            "name" : "chloe\u00cc\u0081 p",
            "uri" : "textures/chloe%C3%8C%C2%81%20p.png"
        },
        {
            "mimeType" : "image/jpeg",
            "name" : "A 70 435",
            "uri" : "textures/A%2070%20435.jpg"
        },
        {
            "mimeType" : "image/jpeg",
            "name" : "000_1QF782",
            "uri" : "textures/000_1QF782.jpg"
        },
        {
            "mimeType" : "image/png",
            "name" : "lisa sweaton film4",
            "uri" : "textures/lisa%20sweaton%20film4.png"
        },
        {
            "mimeType" : "image/png",
            "name" : "Victor Oozeer, Incidences, 2017-2020, Vide\u00cc\u0081o, 17 minutes (4)",
            "uri" : "textures/Victor%20Oozeer%20Incidences%202017-2020%20Vide%C3%8C%C2%81o%2017%20minutes%204.png"
        }
    ],
    "accessors" : [
        {
            "bufferView" : 0,
            "componentType" : 5126,
            "count" : 30,
            "max" : [
                0.5214168429374695,
                0.14814600348472595,
                0.07090193778276443
            ],
            "min" : [
                -0.4408769905567169,
                -0.21025478839874268,
                -0.06860069930553436
            ],
            "type" : "VEC3"
        },
        {
            "bufferView" : 1,
            "componentType" : 5126,
            "count" : 30,
            "type" : "VEC3"
        },
        {
            "bufferView" : 2,
            "componentType" : 5126,
            "count" : 30,
            "type" : "VEC2"
        },
        {
            "bufferView" : 3,
            "componentType" : 5123,
            "count" : 48,
            "type" : "SCALAR"
        },
        {
            "bufferView" : 4,
            "componentType" : 5126,
            "count" : 42,
            "max" : [
                6.736620903015137,
                3.3551695346832275,
                2.9568917751312256
            ],
            "min" : [
                -6.943221092224121,
                -2.629321813583374,
                -3.777714252471924
            ],
            "type" : "VEC3"
        },
        {
            "bufferView" : 5,
            "componentType" : 5126,
            "count" : 42,
            "type" : "VEC3"
        },
        {
            "bufferView" : 6,
            "componentType" : 5126,
            "count" : 42,
            "type" : "VEC2"
        },
        {
            "bufferView" : 7,
            "componentType" : 5123,
            "count" : 72,
            "type" : "SCALAR"
        },
        {
            "bufferView" : 8,
            "componentType" : 5126,
            "count" : 30,
            "max" : [
                5.01061487197876,
                8.382797241210938,
                0.7935931086540222
            ],
            "min" : [
                -5.043601036071777,
                -7.83809757232666,
                -1.389686942100525
            ],
            "type" : "VEC3"
        },
        {
            "bufferView" : 9,
            "componentType" : 5126,
            "count" : 30,
            "type" : "VEC3"
        },
        {
            "bufferView" : 10,
            "componentType" : 5126,
            "count" : 30,
            "type" : "VEC2"
        },
        {
            "bufferView" : 11,
            "componentType" : 5123,
            "count" : 48,
            "type" : "SCALAR"
        },
        {
            "bufferView" : 12,
            "componentType" : 5126,
            "count" : 42,
            "max" : [
                4.1440606117248535,
                1.525832176208496,
                1.3414617776870728
            ],
            "min" : [
                -7.55861759185791,
                -1.020310640335083,
                -1.123096227645874
            ],
            "type" : "VEC3"
        },
        {
            "bufferView" : 13,
            "componentType" : 5126,
            "count" : 42,
            "type" : "VEC3"
        },
        {
            "bufferView" : 14,
            "componentType" : 5126,
            "count" : 42,
            "type" : "VEC2"
        },
        {
            "bufferView" : 15,
            "componentType" : 5123,
            "count" : 72,
            "type" : "SCALAR"
        },
        {
            "bufferView" : 16,
            "componentType" : 5126,
            "count" : 30,
            "max" : [
                4.357309818267822,
                3.572378635406494,
                4.260180950164795
            ],
            "min" : [
                -6.005107879638672,
                -1.9762024879455566,
                -3.0419907569885254
            ],
            "type" : "VEC3"
        },
        {
            "bufferView" : 17,
            "componentType" : 5126,
            "count" : 30,
            "type" : "VEC3"
        },
        {
            "bufferView" : 18,
            "componentType" : 5126,
            "count" : 30,
            "type" : "VEC2"
        },
        {
            "bufferView" : 19,
            "componentType" : 5123,
            "count" : 48,
            "type" : "SCALAR"
        },
        {
            "bufferView" : 20,
            "componentType" : 5126,
            "count" : 30,
            "max" : [
                4.169732570648193,
                2.629344940185547,
                1.1352131366729736
            ],
            "min" : [
                -4.533945083618164,
                -4.772768020629883,
                -1.9569587707519531
            ],
            "type" : "VEC3"
        },
        {
            "bufferView" : 21,
            "componentType" : 5126,
            "count" : 30,
            "type" : "VEC3"
        },
        {
            "bufferView" : 22,
            "componentType" : 5126,
            "count" : 30,
            "type" : "VEC2"
        },
        {
            "bufferView" : 23,
            "componentType" : 5123,
            "count" : 48,
            "type" : "SCALAR"
        },
        {
            "bufferView" : 24,
            "componentType" : 5126,
            "count" : 42,
            "max" : [
                8.245584487915039,
                5.285666465759277,
                3.054062604904175
            ],
            "min" : [
                -6.087965488433838,
                -4.025055408477783,
                -4.132187843322754
            ],
            "type" : "VEC3"
        },
        {
            "bufferView" : 25,
            "componentType" : 5126,
            "count" : 42,
            "type" : "VEC3"
        },
        {
            "bufferView" : 26,
            "componentType" : 5126,
            "count" : 42,
            "type" : "VEC2"
        },
        {
            "bufferView" : 27,
            "componentType" : 5126,
            "count" : 1000,
            "max" : [
                41.666666666666664
            ],
            "min" : [
                0.041666666666666664
            ],
            "type" : "SCALAR"
        },
        {
            "bufferView" : 28,
            "componentType" : 5126,
            "count" : 1000,
            "type" : "VEC4"
        }
    ],
    "bufferViews" : [
        {
            "buffer" : 0,
            "byteLength" : 360,
            "byteOffset" : 0
        },
        {
            "buffer" : 0,
            "byteLength" : 360,
            "byteOffset" : 360
        },
        {
            "buffer" : 0,
            "byteLength" : 240,
            "byteOffset" : 720
        },
        {
            "buffer" : 0,
            "byteLength" : 96,
            "byteOffset" : 960
        },
        {
            "buffer" : 0,
            "byteLength" : 504,
            "byteOffset" : 1056
        },
        {
            "buffer" : 0,
            "byteLength" : 504,
            "byteOffset" : 1560
        },
        {
            "buffer" : 0,
            "byteLength" : 336,
            "byteOffset" : 2064
        },
        {
            "buffer" : 0,
            "byteLength" : 144,
            "byteOffset" : 2400
        },
        {
            "buffer" : 0,
            "byteLength" : 360,
            "byteOffset" : 2544
        },
        {
            "buffer" : 0,
            "byteLength" : 360,
            "byteOffset" : 2904
        },
        {
            "buffer" : 0,
            "byteLength" : 240,
            "byteOffset" : 3264
        },
        {
            "buffer" : 0,
            "byteLength" : 96,
            "byteOffset" : 3504
        },
        {
            "buffer" : 0,
            "byteLength" : 504,
            "byteOffset" : 3600
        },
        {
            "buffer" : 0,
            "byteLength" : 504,
            "byteOffset" : 4104
        },
        {
            "buffer" : 0,
            "byteLength" : 336,
            "byteOffset" : 4608
        },
        {
            "buffer" : 0,
            "byteLength" : 144,
            "byteOffset" : 4944
        },
        {
            "buffer" : 0,
            "byteLength" : 360,
            "byteOffset" : 5088
        },
        {
            "buffer" : 0,
            "byteLength" : 360,
            "byteOffset" : 5448
        },
        {
            "buffer" : 0,
            "byteLength" : 240,
            "byteOffset" : 5808
        },
        {
            "buffer" : 0,
            "byteLength" : 96,
            "byteOffset" : 6048
        },
        {
            "buffer" : 0,
            "byteLength" : 360,
            "byteOffset" : 6144
        },
        {
            "buffer" : 0,
            "byteLength" : 360,
            "byteOffset" : 6504
        },
        {
            "buffer" : 0,
            "byteLength" : 240,
            "byteOffset" : 6864
        },
        {
            "buffer" : 0,
            "byteLength" : 96,
            "byteOffset" : 7104
        },
        {
            "buffer" : 0,
            "byteLength" : 504,
            "byteOffset" : 7200
        },
        {
            "buffer" : 0,
            "byteLength" : 504,
            "byteOffset" : 7704
        },
        {
            "buffer" : 0,
            "byteLength" : 336,
            "byteOffset" : 8208
        },
        {
            "buffer" : 0,
            "byteLength" : 4000,
            "byteOffset" : 8544
        },
        {
            "buffer" : 0,
            "byteLength" : 16000,
            "byteOffset" : 12544
        }
    ],
    "samplers" : [
        {
            "magFilter" : 9729,
            "minFilter" : 9987
        }
    ],
    "buffers" : [
        {
            "byteLength" : 28544,
            "uri" : "Fragment_Img.bin"
        }
    ]
}
