{
    "asset" : {
        "generator" : "Khronos glTF Blender I/O v1.1.46",
        "version" : "2.0"
    },
    "scene" : 0,
    "scenes" : [
        {
            "extras" : {
                "glTF2ExportSettings" : {
                    "export_animations" : 0,
                    "export_colors" : 0,
                    "export_extras" : 1,
                    "export_format" : "GLTF_SEPARATE",
                    "export_morph" : 0,
                    "export_selected" : 1,
                    "export_skins" : 0,
                    "export_texture_dir" : "textures"
                },
                "blenderkitUI" : {
                    "assetbar_on" : 0,
                    "turn_off" : 0
                },
                "uuid" : "54a28d61-73dd-4f6b-b6d3-feddc18819cb"
            },
            "name" : "Scene",
            "nodes" : [
                0,
                1,
                2,
                3,
                4,
                5,
                6,
                7,
                8
            ]
        }
    ],
    "nodes" : [
        {
            "extras" : {},
            "mesh" : 0,
            "name" : "10",
            "translation" : [
                0,
                2.05378794670105,
                0
            ]
        },
        {
            "mesh" : 1,
            "name" : "Plane.003",
            "translation" : [
                0,
                2.05378794670105,
                0
            ]
        },
        {
            "mesh" : 2,
            "name" : "couronne3.1",
            "translation" : [
                0,
                2.05378794670105,
                0
            ]
        },
        {
            "mesh" : 3,
            "name" : "couronne3.2",
            "translation" : [
                0,
                2.05378794670105,
                0
            ]
        },
        {
            "extras" : {},
            "mesh" : 4,
            "name" : "couronne4",
            "translation" : [
                0,
                2.05378794670105,
                0
            ]
        },
        {
            "mesh" : 5,
            "name" : "bras2",
            "translation" : [
                0,
                2.05378794670105,
                0
            ]
        },
        {
            "mesh" : 6,
            "name" : "bras1",
            "translation" : [
                0,
                2.05378794670105,
                0
            ]
        },
        {
            "mesh" : 7,
            "name" : "bras3",
            "translation" : [
                0,
                2.05378794670105,
                0
            ]
        },
        {
            "extras" : {},
            "mesh" : 8,
            "name" : "couronne1",
            "translation" : [
                0,
                2.05378794670105,
                0
            ]
        }
    ],
    "materials" : [
        {
            "alphaMode" : "BLEND",
            "doubleSided" : true,
            "emissiveFactor" : [
                0,
                0,
                0
            ],
            "name" : "10",
            "pbrMetallicRoughness" : {
                "baseColorTexture" : {
                    "index" : 0,
                    "texCoord" : 0
                },
                "metallicFactor" : 0,
                "roughnessFactor" : 0.5
            }
        },
        {
            "doubleSided" : true,
            "emissiveFactor" : [
                0,
                0,
                0
            ],
            "name" : "Polystyrene_Image_Texture_Web.004",
            "normalTexture" : {
                "index" : 1,
                "scale" : 2.0999999046325684,
                "texCoord" : 0
            },
            "pbrMetallicRoughness" : {
                "baseColorTexture" : {
                    "index" : 2,
                    "texCoord" : 0
                },
                "metallicFactor" : 0,
                "roughnessFactor" : 0.6454545259475708
            }
        }
    ],
    "meshes" : [
        {
            "name" : "10",
            "primitives" : [
                {
                    "attributes" : {
                        "POSITION" : 0,
                        "NORMAL" : 1,
                        "TEXCOORD_0" : 2
                    },
                    "indices" : 3,
                    "material" : 0
                }
            ]
        },
        {
            "name" : "Plane.010",
            "primitives" : [
                {
                    "attributes" : {
                        "POSITION" : 4,
                        "NORMAL" : 5,
                        "TEXCOORD_0" : 6
                    },
                    "indices" : 7,
                    "material" : 1
                }
            ]
        },
        {
            "name" : "Plane.011",
            "primitives" : [
                {
                    "attributes" : {
                        "POSITION" : 8,
                        "NORMAL" : 9,
                        "TEXCOORD_0" : 10
                    },
                    "indices" : 11,
                    "material" : 1
                }
            ]
        },
        {
            "name" : "Plane.012",
            "primitives" : [
                {
                    "attributes" : {
                        "POSITION" : 12,
                        "NORMAL" : 13,
                        "TEXCOORD_0" : 14
                    },
                    "indices" : 15,
                    "material" : 1
                }
            ]
        },
        {
            "name" : "Object_1.018",
            "primitives" : [
                {
                    "attributes" : {
                        "POSITION" : 16,
                        "NORMAL" : 17,
                        "TEXCOORD_0" : 18
                    },
                    "indices" : 19,
                    "material" : 1
                }
            ]
        },
        {
            "name" : "Plane.013",
            "primitives" : [
                {
                    "attributes" : {
                        "POSITION" : 20,
                        "NORMAL" : 21,
                        "TEXCOORD_0" : 22
                    },
                    "indices" : 23,
                    "material" : 1
                }
            ]
        },
        {
            "name" : "Plane.014",
            "primitives" : [
                {
                    "attributes" : {
                        "POSITION" : 24,
                        "NORMAL" : 25,
                        "TEXCOORD_0" : 26
                    },
                    "indices" : 27,
                    "material" : 1
                }
            ]
        },
        {
            "name" : "Plane.015",
            "primitives" : [
                {
                    "attributes" : {
                        "POSITION" : 28,
                        "NORMAL" : 29,
                        "TEXCOORD_0" : 30
                    },
                    "indices" : 31,
                    "material" : 1
                }
            ]
        },
        {
            "name" : "Object_1.012",
            "primitives" : [
                {
                    "attributes" : {
                        "POSITION" : 32,
                        "NORMAL" : 33,
                        "TEXCOORD_0" : 34
                    },
                    "indices" : 35,
                    "material" : 1
                }
            ]
        }
    ],
    "textures" : [
        {
            "sampler" : 0,
            "source" : 0
        },
        {
            "source" : 1
        },
        {
            "source" : 2
        }
    ],
    "images" : [
        {
            "mimeType" : "image/png",
            "name" : "10",
            "uri" : "textures/10.png"
        },
        {
            "mimeType" : "image/jpeg",
            "name" : "NormalMap",
            "uri" : "textures/NormalMap.jpg"
        },
        {
            "mimeType" : "image/jpeg",
            "name" : "Diffuse",
            "uri" : "textures/Diffuse.jpg"
        }
    ],
    "accessors" : [
        {
            "bufferView" : 0,
            "componentType" : 5126,
            "count" : 4,
            "max" : [
                6.806680679321289,
                -3.154508590698242,
                1.3548897504806519
            ],
            "min" : [
                6.766485214233398,
                -4.471920967102051,
                -1.5431398153305054
            ],
            "type" : "VEC3"
        },
        {
            "bufferView" : 1,
            "componentType" : 5126,
            "count" : 4,
            "type" : "VEC3"
        },
        {
            "bufferView" : 2,
            "componentType" : 5126,
            "count" : 4,
            "type" : "VEC2"
        },
        {
            "bufferView" : 3,
            "componentType" : 5123,
            "count" : 6,
            "type" : "SCALAR"
        },
        {
            "bufferView" : 4,
            "componentType" : 5126,
            "count" : 1024,
            "max" : [
                7.2505388259887695,
                -3.1013357639312744,
                7.250533103942871
            ],
            "min" : [
                -7.250533103942871,
                -4.559194564819336,
                -7.250533103942871
            ],
            "type" : "VEC3"
        },
        {
            "bufferView" : 5,
            "componentType" : 5126,
            "count" : 1024,
            "type" : "VEC3"
        },
        {
            "bufferView" : 6,
            "componentType" : 5126,
            "count" : 1024,
            "type" : "VEC2"
        },
        {
            "bufferView" : 7,
            "componentType" : 5123,
            "count" : 1536,
            "type" : "SCALAR"
        },
        {
            "bufferView" : 8,
            "componentType" : 5126,
            "count" : 408,
            "max" : [
                4.6840925216674805,
                -5.176052093505859,
                -2.217695474624634
            ],
            "min" : [
                -4.253223419189453,
                -8.255799293518066,
                -5.853569030761719
            ],
            "type" : "VEC3"
        },
        {
            "bufferView" : 9,
            "componentType" : 5126,
            "count" : 408,
            "type" : "VEC3"
        },
        {
            "bufferView" : 10,
            "componentType" : 5126,
            "count" : 408,
            "type" : "VEC2"
        },
        {
            "bufferView" : 11,
            "componentType" : 5123,
            "count" : 612,
            "type" : "SCALAR"
        },
        {
            "bufferView" : 12,
            "componentType" : 5126,
            "count" : 632,
            "max" : [
                4.859137535095215,
                -4.289834976196289,
                4.859137535095215
            ],
            "min" : [
                -4.859136581420898,
                -6.131392955780029,
                -1.7607946395874023
            ],
            "type" : "VEC3"
        },
        {
            "bufferView" : 13,
            "componentType" : 5126,
            "count" : 632,
            "type" : "VEC3"
        },
        {
            "bufferView" : 14,
            "componentType" : 5126,
            "count" : 632,
            "type" : "VEC2"
        },
        {
            "bufferView" : 15,
            "componentType" : 5123,
            "count" : 948,
            "type" : "SCALAR"
        },
        {
            "bufferView" : 16,
            "componentType" : 5126,
            "count" : 1152,
            "max" : [
                2.845998764038086,
                -8.199636459350586,
                2.8460047245025635
            ],
            "min" : [
                -2.8459997177124023,
                -9.010241508483887,
                -2.8459954261779785
            ],
            "type" : "VEC3"
        },
        {
            "bufferView" : 17,
            "componentType" : 5126,
            "count" : 1152,
            "type" : "VEC3"
        },
        {
            "bufferView" : 18,
            "componentType" : 5126,
            "count" : 1152,
            "type" : "VEC2"
        },
        {
            "bufferView" : 19,
            "componentType" : 5123,
            "count" : 1728,
            "type" : "SCALAR"
        },
        {
            "bufferView" : 20,
            "componentType" : 5126,
            "count" : 296,
            "max" : [
                -0.6653485298156738,
                -13.617393493652344,
                5.803735733032227
            ],
            "min" : [
                -5.470607280731201,
                -17.404563903808594,
                -4.909927845001221
            ],
            "type" : "VEC3"
        },
        {
            "bufferView" : 21,
            "componentType" : 5126,
            "count" : 296,
            "type" : "VEC3"
        },
        {
            "bufferView" : 22,
            "componentType" : 5126,
            "count" : 296,
            "type" : "VEC2"
        },
        {
            "bufferView" : 23,
            "componentType" : 5123,
            "count" : 444,
            "type" : "SCALAR"
        },
        {
            "bufferView" : 24,
            "componentType" : 5126,
            "count" : 232,
            "max" : [
                5.794536113739014,
                -8.436563491821289,
                -0.3599715232849121
            ],
            "min" : [
                1.48471999168396,
                -16.390605926513672,
                -5.558263301849365
            ],
            "type" : "VEC3"
        },
        {
            "bufferView" : 25,
            "componentType" : 5126,
            "count" : 232,
            "type" : "VEC3"
        },
        {
            "bufferView" : 26,
            "componentType" : 5126,
            "count" : 232,
            "type" : "VEC2"
        },
        {
            "bufferView" : 27,
            "componentType" : 5123,
            "count" : 348,
            "type" : "SCALAR"
        },
        {
            "bufferView" : 28,
            "componentType" : 5126,
            "count" : 264,
            "max" : [
                1.0613842010498047,
                -19.28675079345703,
                -0.9392741918563843
            ],
            "min" : [
                -6.785346984863281,
                -27.053985595703125,
                -2.985065460205078
            ],
            "type" : "VEC3"
        },
        {
            "bufferView" : 29,
            "componentType" : 5126,
            "count" : 264,
            "type" : "VEC3"
        },
        {
            "bufferView" : 30,
            "componentType" : 5126,
            "count" : 264,
            "type" : "VEC2"
        },
        {
            "bufferView" : 31,
            "componentType" : 5123,
            "count" : 396,
            "type" : "SCALAR"
        },
        {
            "bufferView" : 32,
            "componentType" : 5126,
            "count" : 1536,
            "max" : [
                6.988527297973633,
                1.3256374597549438,
                6.988521099090576
            ],
            "min" : [
                -6.988521099090576,
                -1.1716240644454956,
                -6.988521099090576
            ],
            "type" : "VEC3"
        },
        {
            "bufferView" : 33,
            "componentType" : 5126,
            "count" : 1536,
            "type" : "VEC3"
        },
        {
            "bufferView" : 34,
            "componentType" : 5126,
            "count" : 1536,
            "type" : "VEC2"
        },
        {
            "bufferView" : 35,
            "componentType" : 5123,
            "count" : 1536,
            "type" : "SCALAR"
        }
    ],
    "bufferViews" : [
        {
            "buffer" : 0,
            "byteLength" : 48,
            "byteOffset" : 0
        },
        {
            "buffer" : 0,
            "byteLength" : 48,
            "byteOffset" : 48
        },
        {
            "buffer" : 0,
            "byteLength" : 32,
            "byteOffset" : 96
        },
        {
            "buffer" : 0,
            "byteLength" : 12,
            "byteOffset" : 128
        },
        {
            "buffer" : 0,
            "byteLength" : 12288,
            "byteOffset" : 140
        },
        {
            "buffer" : 0,
            "byteLength" : 12288,
            "byteOffset" : 12428
        },
        {
            "buffer" : 0,
            "byteLength" : 8192,
            "byteOffset" : 24716
        },
        {
            "buffer" : 0,
            "byteLength" : 3072,
            "byteOffset" : 32908
        },
        {
            "buffer" : 0,
            "byteLength" : 4896,
            "byteOffset" : 35980
        },
        {
            "buffer" : 0,
            "byteLength" : 4896,
            "byteOffset" : 40876
        },
        {
            "buffer" : 0,
            "byteLength" : 3264,
            "byteOffset" : 45772
        },
        {
            "buffer" : 0,
            "byteLength" : 1224,
            "byteOffset" : 49036
        },
        {
            "buffer" : 0,
            "byteLength" : 7584,
            "byteOffset" : 50260
        },
        {
            "buffer" : 0,
            "byteLength" : 7584,
            "byteOffset" : 57844
        },
        {
            "buffer" : 0,
            "byteLength" : 5056,
            "byteOffset" : 65428
        },
        {
            "buffer" : 0,
            "byteLength" : 1896,
            "byteOffset" : 70484
        },
        {
            "buffer" : 0,
            "byteLength" : 13824,
            "byteOffset" : 72380
        },
        {
            "buffer" : 0,
            "byteLength" : 13824,
            "byteOffset" : 86204
        },
        {
            "buffer" : 0,
            "byteLength" : 9216,
            "byteOffset" : 100028
        },
        {
            "buffer" : 0,
            "byteLength" : 3456,
            "byteOffset" : 109244
        },
        {
            "buffer" : 0,
            "byteLength" : 3552,
            "byteOffset" : 112700
        },
        {
            "buffer" : 0,
            "byteLength" : 3552,
            "byteOffset" : 116252
        },
        {
            "buffer" : 0,
            "byteLength" : 2368,
            "byteOffset" : 119804
        },
        {
            "buffer" : 0,
            "byteLength" : 888,
            "byteOffset" : 122172
        },
        {
            "buffer" : 0,
            "byteLength" : 2784,
            "byteOffset" : 123060
        },
        {
            "buffer" : 0,
            "byteLength" : 2784,
            "byteOffset" : 125844
        },
        {
            "buffer" : 0,
            "byteLength" : 1856,
            "byteOffset" : 128628
        },
        {
            "buffer" : 0,
            "byteLength" : 696,
            "byteOffset" : 130484
        },
        {
            "buffer" : 0,
            "byteLength" : 3168,
            "byteOffset" : 131180
        },
        {
            "buffer" : 0,
            "byteLength" : 3168,
            "byteOffset" : 134348
        },
        {
            "buffer" : 0,
            "byteLength" : 2112,
            "byteOffset" : 137516
        },
        {
            "buffer" : 0,
            "byteLength" : 792,
            "byteOffset" : 139628
        },
        {
            "buffer" : 0,
            "byteLength" : 18432,
            "byteOffset" : 140420
        },
        {
            "buffer" : 0,
            "byteLength" : 18432,
            "byteOffset" : 158852
        },
        {
            "buffer" : 0,
            "byteLength" : 12288,
            "byteOffset" : 177284
        },
        {
            "buffer" : 0,
            "byteLength" : 3072,
            "byteOffset" : 189572
        }
    ],
    "samplers" : [
        {
            "magFilter" : 9729,
            "minFilter" : 9986
        }
    ],
    "buffers" : [
        {
            "byteLength" : 192644,
            "uri" : "Litterature.bin"
        }
    ]
}
