{
    "asset" : {
        "generator" : "Khronos glTF Blender I/O v1.5.17",
        "version" : "2.0"
    },
    "scene" : 0,
    "scenes" : [
        {
            "extras" : {
                "glTF2ExportSettings" : {
                    "export_animations" : 0,
                    "export_colors" : 0,
                    "export_extras" : 1,
                    "export_format" : "GLTF_SEPARATE",
                    "export_morph" : 0,
                    "export_skins" : 0,
                    "export_texture_dir" : "textures",
                    "use_selection" : 1
                },
                "blenderkitUI" : {
                    "assetbar_on" : 0,
                    "turn_off" : 0
                },
                "uuid" : "54a28d61-73dd-4f6b-b6d3-feddc18819cb"
            },
            "name" : "Scene",
            "nodes" : [
                0,
                1,
                2,
                3,
                4,
                5,
                6,
                7
            ]
        }
    ],
    "nodes" : [
        {
            "mesh" : 0,
            "name" : "Plane.003"
        },
        {
            "mesh" : 1,
            "name" : "couronne3.1"
        },
        {
            "mesh" : 2,
            "name" : "couronne3.2"
        },
        {
            "extras" : {},
            "mesh" : 3,
            "name" : "couronne4"
        },
        {
            "mesh" : 4,
            "name" : "bras2"
        },
        {
            "mesh" : 5,
            "name" : "bras1"
        },
        {
            "mesh" : 6,
            "name" : "bras3"
        },
        {
            "extras" : {},
            "mesh" : 7,
            "name" : "couronne1"
        }
    ],
    "materials" : [
        {
            "doubleSided" : true,
            "name" : "Polystyrene_Image_Texture_Web.004",
            "normalTexture" : {
                "index" : 0,
                "scale" : 2.0999999046325684
            },
            "pbrMetallicRoughness" : {
                "baseColorTexture" : {
                    "index" : 1
                },
                "metallicFactor" : 0,
                "roughnessFactor" : 0.6454545259475708
            }
        }
    ],
    "meshes" : [
        {
            "name" : "Plane.010",
            "primitives" : [
                {
                    "attributes" : {
                        "POSITION" : 0,
                        "NORMAL" : 1,
                        "TEXCOORD_0" : 2
                    },
                    "indices" : 3,
                    "material" : 0
                }
            ]
        },
        {
            "name" : "Plane.011",
            "primitives" : [
                {
                    "attributes" : {
                        "POSITION" : 4,
                        "NORMAL" : 5,
                        "TEXCOORD_0" : 6
                    },
                    "indices" : 7,
                    "material" : 0
                }
            ]
        },
        {
            "name" : "Plane.012",
            "primitives" : [
                {
                    "attributes" : {
                        "POSITION" : 8,
                        "NORMAL" : 9,
                        "TEXCOORD_0" : 10
                    },
                    "indices" : 11,
                    "material" : 0
                }
            ]
        },
        {
            "name" : "Object_1.018",
            "primitives" : [
                {
                    "attributes" : {
                        "POSITION" : 12,
                        "NORMAL" : 13,
                        "TEXCOORD_0" : 14
                    },
                    "indices" : 15,
                    "material" : 0
                }
            ]
        },
        {
            "name" : "Plane.013",
            "primitives" : [
                {
                    "attributes" : {
                        "POSITION" : 16,
                        "NORMAL" : 17,
                        "TEXCOORD_0" : 18
                    },
                    "indices" : 19,
                    "material" : 0
                }
            ]
        },
        {
            "name" : "Plane.014",
            "primitives" : [
                {
                    "attributes" : {
                        "POSITION" : 20,
                        "NORMAL" : 21,
                        "TEXCOORD_0" : 22
                    },
                    "indices" : 23,
                    "material" : 0
                }
            ]
        },
        {
            "name" : "Plane.015",
            "primitives" : [
                {
                    "attributes" : {
                        "POSITION" : 24,
                        "NORMAL" : 25,
                        "TEXCOORD_0" : 26
                    },
                    "indices" : 27,
                    "material" : 0
                }
            ]
        },
        {
            "name" : "Object_1.012",
            "primitives" : [
                {
                    "attributes" : {
                        "POSITION" : 28,
                        "NORMAL" : 29,
                        "TEXCOORD_0" : 30
                    },
                    "indices" : 31,
                    "material" : 0
                }
            ]
        }
    ],
    "textures" : [
        {
            "sampler" : 0,
            "source" : 0
        },
        {
            "sampler" : 0,
            "source" : 1
        }
    ],
    "images" : [
        {
            "mimeType" : "image/jpeg",
            "name" : "NormalMap",
            "uri" : "textures/NormalMap.jpg"
        },
        {
            "mimeType" : "image/jpeg",
            "name" : "Diffuse",
            "uri" : "textures/Diffuse.jpg"
        }
    ],
    "accessors" : [
        {
            "bufferView" : 0,
            "componentType" : 5126,
            "count" : 946,
            "max" : [
                5.96776008605957,
                0.7146215438842773,
                4.845026016235352
            ],
            "min" : [
                -8.53331184387207,
                -0.7432374954223633,
                -9.65604019165039
            ],
            "type" : "VEC3"
        },
        {
            "bufferView" : 1,
            "componentType" : 5126,
            "count" : 946,
            "type" : "VEC3"
        },
        {
            "bufferView" : 2,
            "componentType" : 5126,
            "count" : 946,
            "type" : "VEC2"
        },
        {
            "bufferView" : 3,
            "componentType" : 5123,
            "count" : 1536,
            "type" : "SCALAR"
        },
        {
            "bufferView" : 4,
            "componentType" : 5126,
            "count" : 408,
            "max" : [
                3.401313304901123,
                -1.3600947856903076,
                -4.623202800750732
            ],
            "min" : [
                -5.5360026359558105,
                -4.439842224121094,
                -8.259076118469238
            ],
            "type" : "VEC3"
        },
        {
            "bufferView" : 5,
            "componentType" : 5126,
            "count" : 408,
            "type" : "VEC3"
        },
        {
            "bufferView" : 6,
            "componentType" : 5126,
            "count" : 408,
            "type" : "VEC2"
        },
        {
            "bufferView" : 7,
            "componentType" : 5123,
            "count" : 612,
            "type" : "SCALAR"
        },
        {
            "bufferView" : 8,
            "componentType" : 5126,
            "count" : 632,
            "max" : [
                3.5763583183288574,
                -0.4738774299621582,
                2.4536304473876953
            ],
            "min" : [
                -6.141915798187256,
                -2.3154356479644775,
                -4.166301727294922
            ],
            "type" : "VEC3"
        },
        {
            "bufferView" : 9,
            "componentType" : 5126,
            "count" : 632,
            "type" : "VEC3"
        },
        {
            "bufferView" : 10,
            "componentType" : 5126,
            "count" : 632,
            "type" : "VEC2"
        },
        {
            "bufferView" : 11,
            "componentType" : 5123,
            "count" : 948,
            "type" : "SCALAR"
        },
        {
            "bufferView" : 12,
            "componentType" : 5126,
            "count" : 1152,
            "max" : [
                1.5632201433181763,
                -4.383678913116455,
                0.44049763679504395
            ],
            "min" : [
                -4.128778457641602,
                -5.194284439086914,
                -5.251502513885498
            ],
            "type" : "VEC3"
        },
        {
            "bufferView" : 13,
            "componentType" : 5126,
            "count" : 1152,
            "type" : "VEC3"
        },
        {
            "bufferView" : 14,
            "componentType" : 5126,
            "count" : 1152,
            "type" : "VEC2"
        },
        {
            "bufferView" : 15,
            "componentType" : 5123,
            "count" : 1728,
            "type" : "SCALAR"
        },
        {
            "bufferView" : 16,
            "componentType" : 5126,
            "count" : 296,
            "max" : [
                -1.9481273889541626,
                -9.801435470581055,
                3.398228645324707
            ],
            "min" : [
                -6.7533860206604,
                -13.588605880737305,
                -7.31543493270874
            ],
            "type" : "VEC3"
        },
        {
            "bufferView" : 17,
            "componentType" : 5126,
            "count" : 296,
            "type" : "VEC3"
        },
        {
            "bufferView" : 18,
            "componentType" : 5126,
            "count" : 296,
            "type" : "VEC2"
        },
        {
            "bufferView" : 19,
            "componentType" : 5123,
            "count" : 444,
            "type" : "SCALAR"
        },
        {
            "bufferView" : 20,
            "componentType" : 5126,
            "count" : 232,
            "max" : [
                4.5117573738098145,
                -4.620607376098633,
                -2.7654786109924316
            ],
            "min" : [
                0.20194125175476074,
                -12.574649810791016,
                -7.963770389556885
            ],
            "type" : "VEC3"
        },
        {
            "bufferView" : 21,
            "componentType" : 5126,
            "count" : 232,
            "type" : "VEC3"
        },
        {
            "bufferView" : 22,
            "componentType" : 5126,
            "count" : 232,
            "type" : "VEC2"
        },
        {
            "bufferView" : 23,
            "componentType" : 5123,
            "count" : 348,
            "type" : "SCALAR"
        },
        {
            "bufferView" : 24,
            "componentType" : 5126,
            "count" : 264,
            "max" : [
                -0.22139489650726318,
                -15.47079086303711,
                -3.3447813987731934
            ],
            "min" : [
                -8.06812572479248,
                -23.238027572631836,
                -5.390572547912598
            ],
            "type" : "VEC3"
        },
        {
            "bufferView" : 25,
            "componentType" : 5126,
            "count" : 264,
            "type" : "VEC3"
        },
        {
            "bufferView" : 26,
            "componentType" : 5126,
            "count" : 264,
            "type" : "VEC2"
        },
        {
            "bufferView" : 27,
            "componentType" : 5123,
            "count" : 396,
            "type" : "SCALAR"
        },
        {
            "bufferView" : 28,
            "componentType" : 5126,
            "count" : 1536,
            "max" : [
                5.705748081207275,
                5.141594886779785,
                4.583014488220215
            ],
            "min" : [
                -8.271300315856934,
                2.6443333625793457,
                -9.394027709960938
            ],
            "type" : "VEC3"
        },
        {
            "bufferView" : 29,
            "componentType" : 5126,
            "count" : 1536,
            "type" : "VEC3"
        },
        {
            "bufferView" : 30,
            "componentType" : 5126,
            "count" : 1536,
            "type" : "VEC2"
        },
        {
            "bufferView" : 31,
            "componentType" : 5123,
            "count" : 1536,
            "type" : "SCALAR"
        }
    ],
    "bufferViews" : [
        {
            "buffer" : 0,
            "byteLength" : 11352,
            "byteOffset" : 0
        },
        {
            "buffer" : 0,
            "byteLength" : 11352,
            "byteOffset" : 11352
        },
        {
            "buffer" : 0,
            "byteLength" : 7568,
            "byteOffset" : 22704
        },
        {
            "buffer" : 0,
            "byteLength" : 3072,
            "byteOffset" : 30272
        },
        {
            "buffer" : 0,
            "byteLength" : 4896,
            "byteOffset" : 33344
        },
        {
            "buffer" : 0,
            "byteLength" : 4896,
            "byteOffset" : 38240
        },
        {
            "buffer" : 0,
            "byteLength" : 3264,
            "byteOffset" : 43136
        },
        {
            "buffer" : 0,
            "byteLength" : 1224,
            "byteOffset" : 46400
        },
        {
            "buffer" : 0,
            "byteLength" : 7584,
            "byteOffset" : 47624
        },
        {
            "buffer" : 0,
            "byteLength" : 7584,
            "byteOffset" : 55208
        },
        {
            "buffer" : 0,
            "byteLength" : 5056,
            "byteOffset" : 62792
        },
        {
            "buffer" : 0,
            "byteLength" : 1896,
            "byteOffset" : 67848
        },
        {
            "buffer" : 0,
            "byteLength" : 13824,
            "byteOffset" : 69744
        },
        {
            "buffer" : 0,
            "byteLength" : 13824,
            "byteOffset" : 83568
        },
        {
            "buffer" : 0,
            "byteLength" : 9216,
            "byteOffset" : 97392
        },
        {
            "buffer" : 0,
            "byteLength" : 3456,
            "byteOffset" : 106608
        },
        {
            "buffer" : 0,
            "byteLength" : 3552,
            "byteOffset" : 110064
        },
        {
            "buffer" : 0,
            "byteLength" : 3552,
            "byteOffset" : 113616
        },
        {
            "buffer" : 0,
            "byteLength" : 2368,
            "byteOffset" : 117168
        },
        {
            "buffer" : 0,
            "byteLength" : 888,
            "byteOffset" : 119536
        },
        {
            "buffer" : 0,
            "byteLength" : 2784,
            "byteOffset" : 120424
        },
        {
            "buffer" : 0,
            "byteLength" : 2784,
            "byteOffset" : 123208
        },
        {
            "buffer" : 0,
            "byteLength" : 1856,
            "byteOffset" : 125992
        },
        {
            "buffer" : 0,
            "byteLength" : 696,
            "byteOffset" : 127848
        },
        {
            "buffer" : 0,
            "byteLength" : 3168,
            "byteOffset" : 128544
        },
        {
            "buffer" : 0,
            "byteLength" : 3168,
            "byteOffset" : 131712
        },
        {
            "buffer" : 0,
            "byteLength" : 2112,
            "byteOffset" : 134880
        },
        {
            "buffer" : 0,
            "byteLength" : 792,
            "byteOffset" : 136992
        },
        {
            "buffer" : 0,
            "byteLength" : 18432,
            "byteOffset" : 137784
        },
        {
            "buffer" : 0,
            "byteLength" : 18432,
            "byteOffset" : 156216
        },
        {
            "buffer" : 0,
            "byteLength" : 12288,
            "byteOffset" : 174648
        },
        {
            "buffer" : 0,
            "byteLength" : 3072,
            "byteOffset" : 186936
        }
    ],
    "samplers" : [
        {
            "magFilter" : 9729,
            "minFilter" : 9987
        }
    ],
    "buffers" : [
        {
            "byteLength" : 190008,
            "uri" : "Litterature.bin"
        }
    ]
}
