{
    "asset" : {
        "generator" : "Khronos glTF Blender I/O v1.1.46",
        "version" : "2.0"
    },
    "scene" : 0,
    "scenes" : [
        {
            "extras" : {
                "glTF2ExportSettings" : {
                    "export_animations" : 0,
                    "export_extras" : 1,
                    "export_format" : "GLTF_SEPARATE",
                    "export_morph" : 0,
                    "export_selected" : 1,
                    "export_skins" : 0,
                    "export_texture_dir" : "textures"
                },
                "blenderkitUI" : {
                    "assetbar_on" : 0,
                    "turn_off" : 0
                },
                "uuid" : "54a28d61-73dd-4f6b-b6d3-feddc18819cb"
            },
            "name" : "Scene",
            "nodes" : [
                0,
                1,
                2,
                3,
                4,
                5,
                6,
                7
            ]
        }
    ],
    "nodes" : [
        {
            "extras" : {},
            "mesh" : 0,
            "name" : "couronne1"
        },
        {
            "mesh" : 1,
            "name" : "Plane.003"
        },
        {
            "mesh" : 2,
            "name" : "couronne3.1"
        },
        {
            "mesh" : 3,
            "name" : "couronne3.2",
            "translation" : [
                0,
                2.837517261505127,
                0
            ]
        },
        {
            "extras" : {},
            "mesh" : 4,
            "name" : "couronne4"
        },
        {
            "mesh" : 5,
            "name" : "bras2"
        },
        {
            "mesh" : 6,
            "name" : "bras1"
        },
        {
            "mesh" : 7,
            "name" : "bras3"
        }
    ],
    "materials" : [
        {
            "doubleSided" : true,
            "emissiveFactor" : [
                0,
                0,
                0
            ],
            "name" : "Polystyrene_Image_Texture_Web.004",
            "normalTexture" : {
                "index" : 0,
                "scale" : 2.0999999046325684,
                "texCoord" : 0
            },
            "pbrMetallicRoughness" : {
                "baseColorTexture" : {
                    "index" : 1,
                    "texCoord" : 0
                },
                "metallicFactor" : 0,
                "roughnessFactor" : 0.6454545259475708
            }
        }
    ],
    "meshes" : [
        {
            "name" : "Object_1.017",
            "primitives" : [
                {
                    "attributes" : {
                        "POSITION" : 0,
                        "NORMAL" : 1,
                        "TEXCOORD_0" : 2
                    },
                    "indices" : 3,
                    "material" : 0
                }
            ]
        },
        {
            "name" : "Plane.010",
            "primitives" : [
                {
                    "attributes" : {
                        "POSITION" : 4,
                        "NORMAL" : 5,
                        "TEXCOORD_0" : 6
                    },
                    "indices" : 7,
                    "material" : 0
                }
            ]
        },
        {
            "name" : "Plane.011",
            "primitives" : [
                {
                    "attributes" : {
                        "POSITION" : 8,
                        "NORMAL" : 9,
                        "TEXCOORD_0" : 10
                    },
                    "indices" : 11,
                    "material" : 0
                }
            ]
        },
        {
            "name" : "Plane.012",
            "primitives" : [
                {
                    "attributes" : {
                        "POSITION" : 12,
                        "NORMAL" : 13,
                        "TEXCOORD_0" : 14
                    },
                    "indices" : 15,
                    "material" : 0
                }
            ]
        },
        {
            "name" : "Object_1.018",
            "primitives" : [
                {
                    "attributes" : {
                        "POSITION" : 16,
                        "NORMAL" : 17,
                        "TEXCOORD_0" : 18
                    },
                    "indices" : 19,
                    "material" : 0
                }
            ]
        },
        {
            "name" : "Plane.013",
            "primitives" : [
                {
                    "attributes" : {
                        "POSITION" : 20,
                        "NORMAL" : 21,
                        "TEXCOORD_0" : 22
                    },
                    "indices" : 23,
                    "material" : 0
                }
            ]
        },
        {
            "name" : "Plane.014",
            "primitives" : [
                {
                    "attributes" : {
                        "POSITION" : 24,
                        "NORMAL" : 25,
                        "TEXCOORD_0" : 26
                    },
                    "indices" : 27,
                    "material" : 0
                }
            ]
        },
        {
            "name" : "Plane.015",
            "primitives" : [
                {
                    "attributes" : {
                        "POSITION" : 28,
                        "NORMAL" : 29,
                        "TEXCOORD_0" : 30
                    },
                    "indices" : 31,
                    "material" : 0
                }
            ]
        }
    ],
    "textures" : [
        {
            "source" : 0
        },
        {
            "source" : 1
        }
    ],
    "images" : [
        {
            "mimeType" : "image/jpeg",
            "name" : "NormalMap",
            "uri" : "textures/NormalMap.jpg"
        },
        {
            "mimeType" : "image/jpeg",
            "name" : "Diffuse",
            "uri" : "textures/Diffuse.jpg"
        }
    ],
    "accessors" : [
        {
            "bufferView" : 0,
            "componentType" : 5126,
            "count" : 1536,
            "max" : [
                63.656822204589844,
                49.24353790283203,
                63.65675735473633
            ],
            "min" : [
                -63.656776428222656,
                26.49657440185547,
                -63.656803131103516
            ],
            "type" : "VEC3"
        },
        {
            "bufferView" : 1,
            "componentType" : 5126,
            "count" : 1536,
            "type" : "VEC3"
        },
        {
            "bufferView" : 2,
            "componentType" : 5126,
            "count" : 1536,
            "type" : "VEC2"
        },
        {
            "bufferView" : 3,
            "componentType" : 5123,
            "count" : 1536,
            "type" : "SCALAR"
        },
        {
            "bufferView" : 4,
            "componentType" : 5126,
            "count" : 1024,
            "max" : [
                66.0434341430664,
                8.919282913208008,
                66.0433578491211
            ],
            "min" : [
                -66.04338073730469,
                -4.360008239746094,
                -66.04341125488281
            ],
            "type" : "VEC3"
        },
        {
            "bufferView" : 5,
            "componentType" : 5126,
            "count" : 1024,
            "type" : "VEC3"
        },
        {
            "bufferView" : 6,
            "componentType" : 5126,
            "count" : 1024,
            "type" : "VEC2"
        },
        {
            "bufferView" : 7,
            "componentType" : 5123,
            "count" : 1536,
            "type" : "SCALAR"
        },
        {
            "bufferView" : 8,
            "componentType" : 5126,
            "count" : 408,
            "max" : [
                42.66628646850586,
                -9.978811264038086,
                -20.20049476623535
            ],
            "min" : [
                -38.74160385131836,
                -38.031494140625,
                -53.31879425048828
            ],
            "type" : "VEC3"
        },
        {
            "bufferView" : 9,
            "componentType" : 5126,
            "count" : 408,
            "type" : "VEC3"
        },
        {
            "bufferView" : 10,
            "componentType" : 5126,
            "count" : 408,
            "type" : "VEC2"
        },
        {
            "bufferView" : 11,
            "componentType" : 5123,
            "count" : 612,
            "type" : "SCALAR"
        },
        {
            "bufferView" : 12,
            "componentType" : 5126,
            "count" : 632,
            "max" : [
                44.260738372802734,
                -4.743984222412109,
                44.26069641113281
            ],
            "min" : [
                -44.260711669921875,
                -21.518299102783203,
                -16.038692474365234
            ],
            "type" : "VEC3"
        },
        {
            "bufferView" : 13,
            "componentType" : 5126,
            "count" : 632,
            "type" : "VEC3"
        },
        {
            "bufferView" : 14,
            "componentType" : 5126,
            "count" : 632,
            "type" : "VEC2"
        },
        {
            "bufferView" : 15,
            "componentType" : 5123,
            "count" : 948,
            "type" : "SCALAR"
        },
        {
            "bufferView" : 16,
            "componentType" : 5126,
            "count" : 1152,
            "max" : [
                25.92353057861328,
                -37.51991653442383,
                25.92354393005371
            ],
            "min" : [
                -25.923538208007812,
                -44.90353775024414,
                -25.92353057861328
            ],
            "type" : "VEC3"
        },
        {
            "bufferView" : 17,
            "componentType" : 5126,
            "count" : 1152,
            "type" : "VEC3"
        },
        {
            "bufferView" : 18,
            "componentType" : 5126,
            "count" : 1152,
            "type" : "VEC2"
        },
        {
            "bufferView" : 19,
            "componentType" : 5123,
            "count" : 1728,
            "type" : "SCALAR"
        },
        {
            "bufferView" : 20,
            "componentType" : 5126,
            "count" : 296,
            "max" : [
                -6.060500621795654,
                -86.86897277832031,
                52.86481475830078
            ],
            "min" : [
                -49.830448150634766,
                -121.36538696289062,
                -44.723392486572266
            ],
            "type" : "VEC3"
        },
        {
            "bufferView" : 21,
            "componentType" : 5126,
            "count" : 296,
            "type" : "VEC3"
        },
        {
            "bufferView" : 22,
            "componentType" : 5126,
            "count" : 296,
            "type" : "VEC2"
        },
        {
            "bufferView" : 23,
            "componentType" : 5123,
            "count" : 444,
            "type" : "SCALAR"
        },
        {
            "bufferView" : 24,
            "componentType" : 5126,
            "count" : 232,
            "max" : [
                52.78105163574219,
                -39.678043365478516,
                -3.2789249420166016
            ],
            "min" : [
                13.52396297454834,
                -112.12955474853516,
                -50.62892150878906
            ],
            "type" : "VEC3"
        },
        {
            "bufferView" : 25,
            "componentType" : 5126,
            "count" : 232,
            "type" : "VEC3"
        },
        {
            "bufferView" : 26,
            "componentType" : 5126,
            "count" : 232,
            "type" : "VEC2"
        },
        {
            "bufferView" : 27,
            "componentType" : 5123,
            "count" : 348,
            "type" : "SCALAR"
        },
        {
            "bufferView" : 28,
            "componentType" : 5126,
            "count" : 264,
            "max" : [
                9.667898178100586,
                -138.50979614257812,
                -8.555658340454102
            ],
            "min" : [
                -61.806114196777344,
                -209.25970458984375,
                -27.190284729003906
            ],
            "type" : "VEC3"
        },
        {
            "bufferView" : 29,
            "componentType" : 5126,
            "count" : 264,
            "type" : "VEC3"
        },
        {
            "bufferView" : 30,
            "componentType" : 5126,
            "count" : 264,
            "type" : "VEC2"
        },
        {
            "bufferView" : 31,
            "componentType" : 5123,
            "count" : 396,
            "type" : "SCALAR"
        }
    ],
    "bufferViews" : [
        {
            "buffer" : 0,
            "byteLength" : 18432,
            "byteOffset" : 0
        },
        {
            "buffer" : 0,
            "byteLength" : 18432,
            "byteOffset" : 18432
        },
        {
            "buffer" : 0,
            "byteLength" : 12288,
            "byteOffset" : 36864
        },
        {
            "buffer" : 0,
            "byteLength" : 3072,
            "byteOffset" : 49152
        },
        {
            "buffer" : 0,
            "byteLength" : 12288,
            "byteOffset" : 52224
        },
        {
            "buffer" : 0,
            "byteLength" : 12288,
            "byteOffset" : 64512
        },
        {
            "buffer" : 0,
            "byteLength" : 8192,
            "byteOffset" : 76800
        },
        {
            "buffer" : 0,
            "byteLength" : 3072,
            "byteOffset" : 84992
        },
        {
            "buffer" : 0,
            "byteLength" : 4896,
            "byteOffset" : 88064
        },
        {
            "buffer" : 0,
            "byteLength" : 4896,
            "byteOffset" : 92960
        },
        {
            "buffer" : 0,
            "byteLength" : 3264,
            "byteOffset" : 97856
        },
        {
            "buffer" : 0,
            "byteLength" : 1224,
            "byteOffset" : 101120
        },
        {
            "buffer" : 0,
            "byteLength" : 7584,
            "byteOffset" : 102344
        },
        {
            "buffer" : 0,
            "byteLength" : 7584,
            "byteOffset" : 109928
        },
        {
            "buffer" : 0,
            "byteLength" : 5056,
            "byteOffset" : 117512
        },
        {
            "buffer" : 0,
            "byteLength" : 1896,
            "byteOffset" : 122568
        },
        {
            "buffer" : 0,
            "byteLength" : 13824,
            "byteOffset" : 124464
        },
        {
            "buffer" : 0,
            "byteLength" : 13824,
            "byteOffset" : 138288
        },
        {
            "buffer" : 0,
            "byteLength" : 9216,
            "byteOffset" : 152112
        },
        {
            "buffer" : 0,
            "byteLength" : 3456,
            "byteOffset" : 161328
        },
        {
            "buffer" : 0,
            "byteLength" : 3552,
            "byteOffset" : 164784
        },
        {
            "buffer" : 0,
            "byteLength" : 3552,
            "byteOffset" : 168336
        },
        {
            "buffer" : 0,
            "byteLength" : 2368,
            "byteOffset" : 171888
        },
        {
            "buffer" : 0,
            "byteLength" : 888,
            "byteOffset" : 174256
        },
        {
            "buffer" : 0,
            "byteLength" : 2784,
            "byteOffset" : 175144
        },
        {
            "buffer" : 0,
            "byteLength" : 2784,
            "byteOffset" : 177928
        },
        {
            "buffer" : 0,
            "byteLength" : 1856,
            "byteOffset" : 180712
        },
        {
            "buffer" : 0,
            "byteLength" : 696,
            "byteOffset" : 182568
        },
        {
            "buffer" : 0,
            "byteLength" : 3168,
            "byteOffset" : 183264
        },
        {
            "buffer" : 0,
            "byteLength" : 3168,
            "byteOffset" : 186432
        },
        {
            "buffer" : 0,
            "byteLength" : 2112,
            "byteOffset" : 189600
        },
        {
            "buffer" : 0,
            "byteLength" : 792,
            "byteOffset" : 191712
        }
    ],
    "buffers" : [
        {
            "byteLength" : 192504,
            "uri" : "Litterature.bin"
        }
    ]
}
