{
    "asset" : {
        "generator" : "Khronos glTF Blender I/O v1.5.17",
        "version" : "2.0"
    },
    "scene" : 0,
    "scenes" : [
        {
            "extras" : {
                "glTF2ExportSettings" : {
                    "export_extras" : 1,
                    "export_format" : "GLTF_EMBEDDED",
                    "export_texture_dir" : "textures",
                    "use_selection" : 1
                }
            },
            "name" : "Scene",
            "nodes" : [
                0,
                1,
                2,
                3
            ]
        }
    ],
    "nodes" : [
        {
            "extras" : {},
            "mesh" : 0,
            "name" : "1.1",
            "rotation" : [
                0.5454146862030029,
                0,
                0,
                0.8381664752960205
            ],
            "translation" : [
                0,
                -14.68671703338623,
                -38.36347961425781
            ]
        },
        {
            "extras" : {},
            "mesh" : 1,
            "name" : "3",
            "rotation" : [
                0.7028741836547852,
                0,
                0,
                0.7113142013549805
            ],
            "translation" : [
                0,
                3.677180528640747,
                -61.664520263671875
            ]
        },
        {
            "extras" : {},
            "mesh" : 2,
            "name" : "3.001",
            "rotation" : [
                0.9539202451705933,
                0,
                0,
                0.3000602126121521
            ],
            "translation" : [
                0.20408153533935547,
                38.27851867675781,
                -40.32012176513672
            ]
        },
        {
            "extras" : {},
            "mesh" : 3,
            "name" : "1.003",
            "rotation" : [
                0.3010084331035614,
                0,
                0,
                0.953621506690979
            ],
            "translation" : [
                0,
                -39.492610931396484,
                -19.336029052734375
            ]
        }
    ],
    "materials" : [
        {
            "alphaMode" : "BLEND",
            "doubleSided" : true,
            "emissiveFactor" : [
                1,
                1,
                1
            ],
            "emissiveTexture" : {
                "index" : 0
            },
            "name" : "1",
            "pbrMetallicRoughness" : {
                "baseColorFactor" : [
                    0,
                    0,
                    0,
                    1
                ],
                "baseColorTexture" : {
                    "index" : 1
                },
                "metallicFactor" : 0,
                "roughnessFactor" : 0.5
            }
        },
        {
            "alphaMode" : "BLEND",
            "doubleSided" : true,
            "emissiveFactor" : [
                1,
                1,
                1
            ],
            "emissiveTexture" : {
                "index" : 2
            },
            "name" : "3",
            "pbrMetallicRoughness" : {
                "baseColorFactor" : [
                    0,
                    0,
                    0,
                    1
                ],
                "baseColorTexture" : {
                    "index" : 3
                },
                "metallicFactor" : 0,
                "roughnessFactor" : 0.5
            }
        }
    ],
    "meshes" : [
        {
            "name" : "1.001",
            "primitives" : [
                {
                    "attributes" : {
                        "POSITION" : 0,
                        "NORMAL" : 1,
                        "TEXCOORD_0" : 2
                    },
                    "indices" : 3,
                    "material" : 0
                }
            ]
        },
        {
            "name" : "3",
            "primitives" : [
                {
                    "attributes" : {
                        "POSITION" : 4,
                        "NORMAL" : 5,
                        "TEXCOORD_0" : 6
                    },
                    "indices" : 3,
                    "material" : 1
                }
            ]
        },
        {
            "name" : "3.001",
            "primitives" : [
                {
                    "attributes" : {
                        "POSITION" : 7,
                        "NORMAL" : 8,
                        "TEXCOORD_0" : 9
                    },
                    "indices" : 3,
                    "material" : 1
                }
            ]
        },
        {
            "name" : "1.004",
            "primitives" : [
                {
                    "attributes" : {
                        "POSITION" : 10,
                        "NORMAL" : 11,
                        "TEXCOORD_0" : 12
                    },
                    "indices" : 3,
                    "material" : 0
                }
            ]
        }
    ],
    "textures" : [
        {
            "sampler" : 0,
            "source" : 0
        },
        {
            "sampler" : 0,
            "source" : 0
        },
        {
            "sampler" : 0,
            "source" : 1
        },
        {
            "sampler" : 0,
            "source" : 1
        }
    ],
    "images" : [
        {
            "bufferView" : 4,
            "mimeType" : "image/png",
            "name" : "1"
        },
        {
            "bufferView" : 8,
            "mimeType" : "image/png",
            "name" : "3"
        }
    ],
    "accessors" : [
        {
            "bufferView" : 0,
            "componentType" : 5126,
            "count" : 4,
            "max" : [
                7.945388317108154,
                0,
                4.884995937347412
            ],
            "min" : [
                -7.914488315582275,
                0,
                -4.884995937347412
            ],
            "type" : "VEC3"
        },
        {
            "bufferView" : 1,
            "componentType" : 5126,
            "count" : 4,
            "type" : "VEC3"
        },
        {
            "bufferView" : 2,
            "componentType" : 5126,
            "count" : 4,
            "type" : "VEC2"
        },
        {
            "bufferView" : 3,
            "componentType" : 5123,
            "count" : 6,
            "type" : "SCALAR"
        },
        {
            "bufferView" : 5,
            "componentType" : 5126,
            "count" : 4,
            "max" : [
                8.09172534942627,
                0.0008552251383662224,
                6.177947998046875
            ],
            "min" : [
                -8.083879470825195,
                0.0008546868339180946,
                -4.349447250366211
            ],
            "type" : "VEC3"
        },
        {
            "bufferView" : 6,
            "componentType" : 5126,
            "count" : 4,
            "type" : "VEC3"
        },
        {
            "bufferView" : 7,
            "componentType" : 5126,
            "count" : 4,
            "type" : "VEC2"
        },
        {
            "bufferView" : 9,
            "componentType" : 5126,
            "count" : 4,
            "max" : [
                8.09172534942627,
                0.0008552251383662224,
                6.177947998046875
            ],
            "min" : [
                -8.083879470825195,
                0.0008546868339180946,
                -4.349447250366211
            ],
            "type" : "VEC3"
        },
        {
            "bufferView" : 10,
            "componentType" : 5126,
            "count" : 4,
            "type" : "VEC3"
        },
        {
            "bufferView" : 11,
            "componentType" : 5126,
            "count" : 4,
            "type" : "VEC2"
        },
        {
            "bufferView" : 12,
            "componentType" : 5126,
            "count" : 4,
            "max" : [
                7.945388317108154,
                0,
                4.884995937347412
            ],
            "min" : [
                -7.914488315582275,
                0,
                -4.884995937347412
            ],
            "type" : "VEC3"
        },
        {
            "bufferView" : 13,
            "componentType" : 5126,
            "count" : 4,
            "type" : "VEC3"
        },
        {
            "bufferView" : 14,
            "componentType" : 5126,
            "count" : 4,
            "type" : "VEC2"
        }
    ],
    "bufferViews" : [
        {
            "buffer" : 0,
            "byteLength" : 48,
            "byteOffset" : 0
        },
        {
            "buffer" : 0,
            "byteLength" : 48,
            "byteOffset" : 48
        },
        {
            "buffer" : 0,
            "byteLength" : 32,
            "byteOffset" : 96
        },
        {
            "buffer" : 0,
            "byteLength" : 12,
            "byteOffset" : 128
        },
        {
            "buffer" : 0,
            "byteLength" : 31192,
            "byteOffset" : 140
        },
        {
            "buffer" : 0,
            "byteLength" : 48,
            "byteOffset" : 31332
        },
        {
            "buffer" : 0,
            "byteLength" : 48,
            "byteOffset" : 31380
        },
        {
            "buffer" : 0,
            "byteLength" : 32,
            "byteOffset" : 31428
        },
        {
            "buffer" : 0,
            "byteLength" : 41321,
            "byteOffset" : 31460
        },
        {
            "buffer" : 0,
            "byteLength" : 48,
            "byteOffset" : 72784
        },
        {
            "buffer" : 0,
            "byteLength" : 48,
            "byteOffset" : 72832
        },
        {
            "buffer" : 0,
            "byteLength" : 32,
            "byteOffset" : 72880
        },
        {
            "buffer" : 0,
            "byteLength" : 48,
            "byteOffset" : 72912
        },
        {
            "buffer" : 0,
            "byteLength" : 48,
            "byteOffset" : 72960
        },
        {
            "buffer" : 0,
            "byteLength" : 32,
            "byteOffset" : 73008
        }
    ],
    "samplers" : [
        {
            "magFilter" : 9729,
            "minFilter" : 9987,
            "wrapS" : 33071,
            "wrapT" : 33071
        }
    ],
    "buffers" : [
        {
            "byteLength" : 73040,
            "uri" : "data:application/octet-stream;base64,"
        }
    ]
}
