<svg xmlns="http://www.w3.org/2000/svg" viewBox="0 0 50 50"><defs><style>.cls-1{fill:none;stroke:#000;stroke-miterlimit:10;stroke-width:4.06px;}</style></defs><g id="achure"><path class="cls-1" d="M28,47.27l3.85-6.64,3.13-12V24.93M28,2.68l3.85,6.65,3.13,12V25M21.79,47.32l-3.85-6.65-3.13-12V25m7-22.25L17.94,9.37l-3.13,12v3.68M47.21,27l-7.9,3.85-11.5,2.5H24.89M2.56,27l7.9,3.85L22,33.31h2.92M44,13.44,40.33,16.3l-8.72,3.06-3.75.74h-3M5.79,13.44,9.44,16.3l8.72,3.06,3.75.74h3M47.26,25l0,3.17-2.14,6.32-2.07,3.86-4.51,4.69L35,45l-7,2.35h-6.2l-7-2.35-3.58-1.91L6.77,38.37,4.7,34.51,2.56,28.19l0-3.12V21.86l2.14-6.33,2.07-3.86L11.25,7l3.57-1.91,7-2.35H28l7,2.35L38.52,7,43,11.67l2.06,3.86,2.15,6.33Z"/></g></svg>