<svg id="Calque_1" data-name="Calque 1" xmlns="http://www.w3.org/2000/svg" viewBox="0 0 50 50"><defs><style>.cls-1{fill:none;}.cls-2{isolation:isolate;}</style></defs><rect class="cls-1" width="50" height="50"/><g class="cls-2"><path d="M14.46,22.25V21l.74-1.5.77-.77,1.5-.76H20.2l1.51.76.78.77.74,1.5v1.58l-.67,1.35-1.3,1.95-4.21,3.78h6.21v1.87H14.08v-1.6l5.8-5.31,1-1.52.46-.95v-.72L21,20.56l-.34-.32-.85-.44H17.88l-.81.44-.33.32-.43.85v.84Z" transform="translate(0 0)"/><path d="M25.49,18.09h5.26l2.11.69,1.46,1.46L35,21.61l.67,2V26L35,28l-.66,1.33-1.46,1.46-2.11.72H25.49ZM27.4,29.58h3l1.4-.47.9-.93.47-.94.54-1.58V23.93l-.52-1.57-.51-1-.86-.88L30.43,20h-3Z" transform="translate(0 0)"/></g><polygon class="cls-1" points="35 16.2 38 16.2 38 16.2 35 16.2"/></svg>