<svg xmlns="http://www.w3.org/2000/svg" viewBox="0 0 50 50"><defs><style>.cls-1{fill:none;stroke:#000;stroke-miterlimit:10;stroke-width:1.89px;}</style></defs><g id="Calque_3" data-name="Calque 3"><polygon points="29.55 1.86 17.34 9.79 4.53 39.84 12.78 43.36 24.54 15.78 34.25 9.34 29.55 1.86"/><path d="M36.1,7.73,38.84,8.9l2.76,4.39-7.41,4.92-.71.47-.33.78-10.64,25-6-2.56,10.64-25,.09-.21,7.93-5.26L37.36,10,36.1,7.73M29.55,1.86l4.05,7.2-9.38,6.22.32.5L12.78,43.36,24,48.14,35.76,20.57l9.71-6.45-4.7-7.48L29.55,1.86Z"/><line class="cls-1" x1="24.72" y1="15.35" x2="35.94" y2="20.13"/><line class="cls-1" x1="34.25" y1="9.34" x2="43.38" y2="13.23"/><polygon points="36.77 5.89 35.3 9.32 42.26 12.29 42.41 9.18 36.77 5.89 36.77 5.89"/></g></svg>