<?xml version="1.0" encoding="UTF-8" standalone="no"?>
<svg
   xmlns:dc="http://purl.org/dc/elements/1.1/"
   xmlns:cc="http://creativecommons.org/ns#"
   xmlns:rdf="http://www.w3.org/1999/02/22-rdf-syntax-ns#"
   xmlns:svg="http://www.w3.org/2000/svg"
   xmlns="http://www.w3.org/2000/svg"
   xmlns:sodipodi="http://sodipodi.sourceforge.net/DTD/sodipodi-0.dtd"
   xmlns:inkscape="http://www.inkscape.org/namespaces/inkscape"
   id="Calque_1"
   data-name="Calque 1"
   viewBox="0 0 50 50"
   version="1.1"
   sodipodi:docname="icon3D.svg"
   inkscape:version="1.0.2 (394de47547, 2021-03-26)">
  <metadata
     id="metadata17">
    <rdf:RDF>
      <cc:Work
         rdf:about="">
        <dc:format>image/svg+xml</dc:format>
        <dc:type
           rdf:resource="http://purl.org/dc/dcmitype/StillImage" />
        <dc:title />
      </cc:Work>
    </rdf:RDF>
  </metadata>
  <sodipodi:namedview
     pagecolor="#ffffff"
     bordercolor="#666666"
     borderopacity="1"
     objecttolerance="10"
     gridtolerance="10"
     guidetolerance="10"
     inkscape:pageopacity="0"
     inkscape:pageshadow="2"
     inkscape:window-width="1549"
     inkscape:window-height="908"
     id="namedview15"
     showgrid="false"
     inkscape:zoom="10.111627"
     inkscape:cx="15.368438"
     inkscape:cy="25.885516"
     inkscape:window-x="274"
     inkscape:window-y="61"
     inkscape:window-maximized="0"
     inkscape:current-layer="Calque_1"
     inkscape:document-rotation="0" />
  <defs
     id="defs4">
    <style
       id="style2">.cls-1{fill:none;}.cls-2{isolation:isolate;}</style>
  </defs>
  <rect
     class="cls-1"
     width="50"
     height="50"
     id="rect6" />
  <g
     class="cls-2"
     id="g12"
     transform="matrix(1.8166589,0,0,1.8166589,-19.786734,-25.266952)"
     style="stroke-width:0.55046">
    <path
       d="m 22.81,20.89 v 1.53 l -2.45,2.94 H 21 L 23.32,26.85 24,29 v 1.2 l -0.69,2.07 -1.46,1.48 -2.08,0.7 h -2 l -2.07,-0.7 -0.85,-0.83 -0.9,-1.79 1.73,-0.79 0.7,1.46 0.31,0.31 1.39,0.47 h 1.4 l 1.41,-0.47 0.81,-0.81 0.48,-1.41 v -0.54 l -0.43,-1.29 -1.4,-1 h -1.14 l -1,0.42 -1.21,-1.31 3.06,-3.41 h -4.67 v -1.87 z"
       id="path8"
       style="stroke-width:0.55046" />
    <path
       d="m 30.466708,20.89 2.1,0.68 1.46,1.43 0.67,1.37 0.66,2 v 2.38 l -0.66,2 -0.67,1.33 -1.46,1.46 -2.1,0.72 h -5.26 V 20.89 Z m -0.33,11.49 1.41,-0.47 0.9,-0.94 0.44,-0.97 0.54,-1.59 v -1.69 l -0.54,-1.56 -0.5,-1 -0.87,-0.88 -1.42,-0.49 h -3 v 9.58 z"
       id="path10"
       style="stroke-width:0.55046"
       sodipodi:nodetypes="cccccccccccccccccccccccccc" />
  </g>
</svg>
