<svg xmlns="http://www.w3.org/2000/svg" viewBox="0 0 50 50"><g id="Calque_3" data-name="Calque 3"><path d="M22.7,43.13c0-.06,0-.12,0-.18V6.88H19.78a.21.21,0,0,0-.15.08L16.87,9.81l-7.35,7.6a.26.26,0,0,1-.2.08H6.43V31.24H9.31a.24.24,0,0,1,.21.09L11.3,33.4l2.48,2.88q1.46,1.66,2.89,3.34l2.38,2.75.65.76Z"/><path d="M43.57,23.47c0-.14,0-.29-.08-.43-.24-1.38-.49-2.75-.73-4.13l-.21-1.2a.84.84,0,0,0,0-.17c-.6-1.42-1.21-2.83-1.81-4.24l-.07-.13L38.74,9.93a2.15,2.15,0,0,0-.33-.46L36.2,7l-.09-.1c-.07,0-2,2.29-2.11,2.42s.06,0,.08.08l2.19,2.51.11.15,1.53,2.64a5.52,5.52,0,0,1,.26.55c.51,1.17,1,2.35,1.54,3.53a.58.58,0,0,1,0,.14c.27,1.54.54,3.08.8,4.61a.88.88,0,0,1,0,.16c0,.87,0,1.74,0,2.61a3.93,3.93,0,0,1-.06.48L39.76,31a1.09,1.09,0,0,1,0,.17L38,35.11a1,1,0,0,1-.08.14c-.46.79-.92,1.58-1.37,2.38a4.35,4.35,0,0,1-.43.6c-.69.79-1.37,1.59-2.06,2.39l0,.06.06.08c.65.77,1.31,1.53,2,2.29l.06.08h0l.07-.09c.78-.9,1.57-1.8,2.35-2.71l.12-.16c.65-1.14,1.31-2.27,2-3.41a1,1,0,0,0,.08-.15c.6-1.4,1.2-2.8,1.79-4.2a.6.6,0,0,0,.06-.19L42.76,31c.24-1.36.49-2.72.73-4.08,0-.15,0-.3.08-.45Z"/><path d="M31.92,11.37l-2.1,2.45.27.31,1.76,2.06.12.17c.1.17.19.34.3.51A11.59,11.59,0,0,1,33,18.41c.36.84.73,1.67,1.09,2.51a1.11,1.11,0,0,1,.07.26l.39,2.27a.77.77,0,0,1,0,.15V26c0,.11,0,.22,0,.33l-.39,2.2a.84.84,0,0,1-.05.17c-.5,1.13-1,2.26-1.49,3.4a0,0,0,0,0,0,0c-.24.4-.46.81-.7,1.2a4,4,0,0,1-.38.44l-1.65,1.93-.07.09,2.1,2.44.07-.07,2.13-2.46a.36.36,0,0,0,.08-.12l1.08-1.86c.1-.18.17-.39.26-.58C36,32.09,36.45,31,36.9,30a.6.6,0,0,0,.06-.19c.2-1.14.41-2.29.61-3.44a1.11,1.11,0,0,0,0-.17c0-.9,0-1.8,0-2.69a3.33,3.33,0,0,0-.07-.54c-.18-1-.36-2-.55-3.05a1.17,1.17,0,0,0-.05-.2c-.52-1.22-1-2.43-1.55-3.64l-.09-.18-1.05-1.8a1.66,1.66,0,0,0-.22-.3l-2-2.34Z"/><path d="M27.77,16.2l-2.09,2.45.06.08L26.84,20a.91.91,0,0,1,.11.16c.23.4.47.8.7,1.21.08.16.15.33.23.49l.48,1.1a2.12,2.12,0,0,1,.1.36c.06.23.1.46.15.7a1,1,0,0,1,0,.24v1.12a1,1,0,0,1,0,.24l-.18.86c0,.06,0,.12-.05.17-.23.5-.44,1-.67,1.5-.08.17-.18.33-.27.49s-.33.58-.5.86a.71.71,0,0,1-.1.14l-1.08,1.24-.1.08,2.1,2.47.07-.06,1.51-1.74a.34.34,0,0,0,.09-.12c.27-.49.54-1,.8-1.46.11-.22.21-.46.31-.69.23-.55.47-1.11.71-1.66a2.35,2.35,0,0,0,.17-.55c.06-.36.13-.71.19-1.07a.76.76,0,0,0,0-.15c0-.74,0-1.47,0-2.21a1.84,1.84,0,0,0-.06-.4l-.18-1a.88.88,0,0,0-.05-.15l-1-2.4a.61.61,0,0,0-.07-.14l-.79-1.44a.41.41,0,0,0-.07-.11l-1.53-1.76A.34.34,0,0,1,27.77,16.2Z"/></g></svg>