{
    "asset" : {
        "generator" : "Khronos glTF Blender I/O v1.5.17",
        "version" : "2.0"
    },
    "scene" : 0,
    "scenes" : [
        {
            "extras" : {
                "glTF2ExportSettings" : {
                    "export_apply" : 0,
                    "export_cameras" : 0,
                    "export_colors" : 0,
                    "export_extras" : 1,
                    "export_format" : "GLTF_SEPARATE",
                    "export_materials" : "NONE",
                    "export_texture_dir" : "Ilots_Textures",
                    "use_selection" : 1
                }
            },
            "name" : "Scene",
            "nodes" : [
                0
            ]
        }
    ],
    "nodes" : [
        {
            "extras" : {},
            "mesh" : 0,
            "name" : "Apostrophe_pauline",
            "rotation" : [
                -0.8192732334136963,
                -0.47727975249290466,
                -0.14835578203201294,
                -0.28104448318481445
            ]
        }
    ],
    "meshes" : [
        {
            "name" : "Curve.028",
            "primitives" : [
                {
                    "attributes" : {
                        "POSITION" : 0,
                        "NORMAL" : 1,
                        "TEXCOORD_0" : 2
                    },
                    "indices" : 3
                }
            ]
        }
    ],
    "accessors" : [
        {
            "bufferView" : 0,
            "componentType" : 5126,
            "count" : 66,
            "max" : [
                32.68281936645508,
                8.177903175354004,
                -17.67504119873047
            ],
            "min" : [
                31.306028366088867,
                6.206033706665039,
                -19.352928161621094
            ],
            "type" : "VEC3"
        },
        {
            "bufferView" : 1,
            "componentType" : 5126,
            "count" : 66,
            "type" : "VEC3"
        },
        {
            "bufferView" : 2,
            "componentType" : 5126,
            "count" : 66,
            "type" : "VEC2"
        },
        {
            "bufferView" : 3,
            "componentType" : 5123,
            "count" : 120,
            "type" : "SCALAR"
        }
    ],
    "bufferViews" : [
        {
            "buffer" : 0,
            "byteLength" : 792,
            "byteOffset" : 0
        },
        {
            "buffer" : 0,
            "byteLength" : 792,
            "byteOffset" : 792
        },
        {
            "buffer" : 0,
            "byteLength" : 528,
            "byteOffset" : 1584
        },
        {
            "buffer" : 0,
            "byteLength" : 240,
            "byteOffset" : 2112
        }
    ],
    "buffers" : [
        {
            "byteLength" : 2352,
            "uri" : "Apostrophe_pauline.bin"
        }
    ]
}
