{
    "asset" : {
        "generator" : "Khronos glTF Blender I/O v1.5.17",
        "version" : "2.0"
    },
    "scene" : 0,
    "scenes" : [
        {
            "extras" : {
                "glTF2ExportSettings" : {
                    "export_apply" : 0,
                    "export_cameras" : 0,
                    "export_colors" : 0,
                    "export_extras" : 1,
                    "export_format" : "GLTF_SEPARATE",
                    "export_materials" : "NONE",
                    "export_texture_dir" : "Ilots_Textures",
                    "use_selection" : 1
                }
            },
            "name" : "Scene",
            "nodes" : [
                0
            ]
        }
    ],
    "nodes" : [
        {
            "extras" : {},
            "mesh" : 0,
            "name" : "Apostrophe_Pierre",
            "rotation" : [
                0.1793893426656723,
                0.11566895991563797,
                -0.3662055432796478,
                0.9057227373123169
            ],
            "translation" : [
                -0.0140533447265625,
                0,
                0
            ]
        }
    ],
    "meshes" : [
        {
            "name" : "Curve.015",
            "primitives" : [
                {
                    "attributes" : {
                        "POSITION" : 0,
                        "NORMAL" : 1,
                        "TEXCOORD_0" : 2
                    },
                    "indices" : 3
                }
            ]
        }
    ],
    "accessors" : [
        {
            "bufferView" : 0,
            "componentType" : 5126,
            "count" : 36,
            "max" : [
                -15.58268928527832,
                -13.512846946716309,
                -15.92911434173584
            ],
            "min" : [
                -18.252187728881836,
                -13.792741775512695,
                -23.698665618896484
            ],
            "type" : "VEC3"
        },
        {
            "bufferView" : 1,
            "componentType" : 5126,
            "count" : 36,
            "type" : "VEC3"
        },
        {
            "bufferView" : 2,
            "componentType" : 5126,
            "count" : 36,
            "type" : "VEC2"
        },
        {
            "bufferView" : 3,
            "componentType" : 5123,
            "count" : 60,
            "type" : "SCALAR"
        }
    ],
    "bufferViews" : [
        {
            "buffer" : 0,
            "byteLength" : 432,
            "byteOffset" : 0
        },
        {
            "buffer" : 0,
            "byteLength" : 432,
            "byteOffset" : 432
        },
        {
            "buffer" : 0,
            "byteLength" : 288,
            "byteOffset" : 864
        },
        {
            "buffer" : 0,
            "byteLength" : 120,
            "byteOffset" : 1152
        }
    ],
    "buffers" : [
        {
            "byteLength" : 1272,
            "uri" : "Apostrophe_Pierre.bin"
        }
    ]
}
