{
    "asset" : {
        "generator" : "Khronos glTF Blender I/O v1.4.40",
        "version" : "2.0"
    },
    "scene" : 0,
    "scenes" : [
        {
            "extras" : {
                "by_tool" : {
                    "mod_hsf_allow_mirror" : 1,
                    "mod_decimate_collapse" : 0.14999999105930328,
                    "mod_decimate_angle" : 0.05453299731016159,
                    "mode_mod_disp" : 0
                }
            },
            "name" : "Scene",
            "nodes" : [
                0
            ]
        }
    ],
    "nodes" : [
        {
            "mesh" : 0,
            "name" : "HSS_Object",
            "rotation" : [
                1,
                0,
                0,
                -1.6292068494294654e-07
            ]
        }
    ],
    "materials" : [
        {
            "doubleSided" : true,
            "name" : "Material.002",
            "pbrMetallicRoughness" : {
                "baseColorFactor" : [
                    0,
                    0,
                    0,
                    1
                ],
                "metallicFactor" : 0,
                "roughnessFactor" : 0.7056737542152405
            }
        }
    ],
    "meshes" : [
        {
            "name" : "mesh.001",
            "primitives" : [
                {
                    "attributes" : {
                        "POSITION" : 0,
                        "NORMAL" : 1
                    },
                    "indices" : 2,
                    "material" : 0
                }
            ]
        }
    ],
    "accessors" : [
        {
            "bufferView" : 0,
            "componentType" : 5126,
            "count" : 80498,
            "max" : [
                2.055274486541748,
                2.7052721977233887,
                3.0729923248291016
            ],
            "min" : [
                -5.145791530609131,
                -4.067509174346924,
                -2.9677085876464844
            ],
            "type" : "VEC3"
        },
        {
            "bufferView" : 1,
            "componentType" : 5126,
            "count" : 80498,
            "type" : "VEC3"
        },
        {
            "bufferView" : 2,
            "componentType" : 5125,
            "count" : 490752,
            "type" : "SCALAR"
        }
    ],
    "bufferViews" : [
        {
            "buffer" : 0,
            "byteLength" : 965976,
            "byteOffset" : 0
        },
        {
            "buffer" : 0,
            "byteLength" : 965976,
            "byteOffset" : 965976
        },
        {
            "buffer" : 0,
            "byteLength" : 1963008,
            "byteOffset" : 1931952
        }
    ],
    "buffers" : [
        {
            "byteLength" : 3894960,
            "uri" : "Formes_3D_N.C.bin"
        }
    ]
}
