{
    "asset" : {
        "generator" : "Khronos glTF Blender I/O v1.5.17",
        "version" : "2.0"
    },
    "extensionsUsed" : [
        "KHR_texture_transform"
    ],
    "extensionsRequired" : [
        "KHR_texture_transform"
    ],
    "scene" : 0,
    "scenes" : [
        {
            "extras" : {
                "glTF2ExportSettings" : {
                    "export_apply" : 0,
                    "export_cameras" : 0,
                    "export_colors" : 0,
                    "export_extras" : 1,
                    "export_format" : "GLTF_SEPARATE",
                    "export_materials" : "EXPORT",
                    "export_texture_dir" : "Ilots_Textures",
                    "use_selection" : 1
                }
            },
            "name" : "Scene",
            "nodes" : [
                0
            ]
        }
    ],
    "nodes" : [
        {
            "extras" : {},
            "mesh" : 0,
            "name" : "L'invisible",
            "rotation" : [
                0.12140374630689621,
                -0.2126588076353073,
                0.452293336391449,
                0.85759437084198
            ]
        }
    ],
    "materials" : [
        {
            "doubleSided" : true,
            "name" : "Polystyrene_Image_Texture_Web.004",
            "normalTexture" : {
                "extensions" : {
                    "KHR_texture_transform" : {
                        "offset" : [
                            0,
                            -3
                        ],
                        "scale" : [
                            4,
                            4
                        ]
                    }
                },
                "index" : 0,
                "scale" : 2.0999999046325684
            },
            "pbrMetallicRoughness" : {
                "baseColorTexture" : {
                    "extensions" : {
                        "KHR_texture_transform" : {
                            "offset" : [
                                0,
                                -3
                            ],
                            "scale" : [
                                4,
                                4
                            ]
                        }
                    },
                    "index" : 1
                },
                "metallicFactor" : 0,
                "roughnessFactor" : 0.6454545259475708
            }
        }
    ],
    "meshes" : [
        {
            "name" : "Curve.011",
            "primitives" : [
                {
                    "attributes" : {
                        "POSITION" : 0,
                        "NORMAL" : 1,
                        "TEXCOORD_0" : 2
                    },
                    "indices" : 3,
                    "material" : 0
                }
            ]
        }
    ],
    "textures" : [
        {
            "sampler" : 0,
            "source" : 0
        },
        {
            "sampler" : 0,
            "source" : 1
        }
    ],
    "images" : [
        {
            "mimeType" : "image/jpeg",
            "name" : "NormalMap",
            "uri" : "Ilots_Textures/NormalMap.jpg"
        },
        {
            "mimeType" : "image/jpeg",
            "name" : "Diffuse",
            "uri" : "Ilots_Textures/Diffuse.jpg"
        }
    ],
    "accessors" : [
        {
            "bufferView" : 0,
            "componentType" : 5126,
            "count" : 386,
            "max" : [
                14.892889976501465,
                20.86944007873535,
                28.224212646484375
            ],
            "min" : [
                -14.892889976501465,
                -20.86944007873535,
                -28.224212646484375
            ],
            "type" : "VEC3"
        },
        {
            "bufferView" : 1,
            "componentType" : 5126,
            "count" : 386,
            "type" : "VEC3"
        },
        {
            "bufferView" : 2,
            "componentType" : 5126,
            "count" : 386,
            "type" : "VEC2"
        },
        {
            "bufferView" : 3,
            "componentType" : 5123,
            "count" : 744,
            "type" : "SCALAR"
        }
    ],
    "bufferViews" : [
        {
            "buffer" : 0,
            "byteLength" : 4632,
            "byteOffset" : 0
        },
        {
            "buffer" : 0,
            "byteLength" : 4632,
            "byteOffset" : 4632
        },
        {
            "buffer" : 0,
            "byteLength" : 3088,
            "byteOffset" : 9264
        },
        {
            "buffer" : 0,
            "byteLength" : 1488,
            "byteOffset" : 12352
        }
    ],
    "samplers" : [
        {
            "magFilter" : 9729,
            "minFilter" : 9987
        }
    ],
    "buffers" : [
        {
            "byteLength" : 13840,
            "uri" : "L'invisible.bin"
        }
    ]
}
