{
    "asset" : {
        "generator" : "Khronos glTF Blender I/O v1.5.17",
        "version" : "2.0"
    },
    "extensionsUsed" : [
        "KHR_texture_transform"
    ],
    "extensionsRequired" : [
        "KHR_texture_transform"
    ],
    "scene" : 0,
    "scenes" : [
        {
            "extras" : {
                "glTF2ExportSettings" : {
                    "export_apply" : 0,
                    "export_cameras" : 0,
                    "export_colors" : 0,
                    "export_extras" : 1,
                    "export_format" : "GLTF_SEPARATE",
                    "export_materials" : "EXPORT",
                    "export_texture_dir" : "Ilots_Textures",
                    "use_selection" : 1
                }
            },
            "name" : "Scene",
            "nodes" : [
                0
            ]
        }
    ],
    "nodes" : [
        {
            "extras" : {
                "VariantMaterialArrayProperty" : {}
            },
            "mesh" : 0,
            "name" : "Le_soin",
            "rotation" : [
                -0.003956083208322525,
                0.7070955634117126,
                -0.7070958614349365,
                -0.003956479951739311
            ]
        }
    ],
    "materials" : [
        {
            "doubleSided" : true,
            "name" : "Polystyrene_Image_Texture_Web.004",
            "normalTexture" : {
                "extensions" : {
                    "KHR_texture_transform" : {
                        "offset" : [
                            0,
                            -3
                        ],
                        "scale" : [
                            4,
                            4
                        ]
                    }
                },
                "index" : 0,
                "scale" : 2.0999999046325684
            },
            "pbrMetallicRoughness" : {
                "baseColorTexture" : {
                    "extensions" : {
                        "KHR_texture_transform" : {
                            "offset" : [
                                0,
                                -3
                            ],
                            "scale" : [
                                4,
                                4
                            ]
                        }
                    },
                    "index" : 1
                },
                "metallicFactor" : 0,
                "roughnessFactor" : 0.6454545259475708
            }
        }
    ],
    "meshes" : [
        {
            "name" : "partie_le soin.003",
            "primitives" : [
                {
                    "attributes" : {
                        "POSITION" : 0,
                        "NORMAL" : 1,
                        "TEXCOORD_0" : 2
                    },
                    "indices" : 3,
                    "material" : 0
                }
            ]
        }
    ],
    "textures" : [
        {
            "sampler" : 0,
            "source" : 0
        },
        {
            "sampler" : 0,
            "source" : 1
        }
    ],
    "images" : [
        {
            "mimeType" : "image/jpeg",
            "name" : "NormalMap",
            "uri" : "Ilots_Textures/NormalMap.jpg"
        },
        {
            "mimeType" : "image/jpeg",
            "name" : "Diffuse",
            "uri" : "Ilots_Textures/Diffuse.jpg"
        }
    ],
    "accessors" : [
        {
            "bufferView" : 0,
            "componentType" : 5126,
            "count" : 296,
            "max" : [
                12.756179809570312,
                17.79865074157715,
                -0.0054931640625
            ],
            "min" : [
                -12.756162643432617,
                -17.798662185668945,
                -33.05950927734375
            ],
            "type" : "VEC3"
        },
        {
            "bufferView" : 1,
            "componentType" : 5126,
            "count" : 296,
            "type" : "VEC3"
        },
        {
            "bufferView" : 2,
            "componentType" : 5126,
            "count" : 296,
            "type" : "VEC2"
        },
        {
            "bufferView" : 3,
            "componentType" : 5123,
            "count" : 558,
            "type" : "SCALAR"
        }
    ],
    "bufferViews" : [
        {
            "buffer" : 0,
            "byteLength" : 3552,
            "byteOffset" : 0
        },
        {
            "buffer" : 0,
            "byteLength" : 3552,
            "byteOffset" : 3552
        },
        {
            "buffer" : 0,
            "byteLength" : 2368,
            "byteOffset" : 7104
        },
        {
            "buffer" : 0,
            "byteLength" : 1116,
            "byteOffset" : 9472
        }
    ],
    "samplers" : [
        {
            "magFilter" : 9729,
            "minFilter" : 9987
        }
    ],
    "buffers" : [
        {
            "byteLength" : 10588,
            "uri" : "Le_soin.bin"
        }
    ]
}
